<?xml version="1.0" encoding="utf-8" standalone="no"?>
<!DOCTYPE svg PUBLIC "-//W3C//DTD SVG 1.1//EN"
  "http://www.w3.org/Graphics/SVG/1.1/DTD/svg11.dtd">
<svg xmlns:xlink="http://www.w3.org/1999/xlink" width="857.464687pt" height="568.666563pt" viewBox="0 0 857.464687 568.666563" xmlns="http://www.w3.org/2000/svg" version="1.1">
 <metadata>
  <rdf:RDF xmlns:dc="http://purl.org/dc/elements/1.1/" xmlns:cc="http://creativecommons.org/ns#" xmlns:rdf="http://www.w3.org/1999/02/22-rdf-syntax-ns#">
   <cc:Work>
    <dc:type rdf:resource="http://purl.org/dc/dcmitype/StillImage"/>
    <dc:date>2025-02-13T20:28:53.867795</dc:date>
    <dc:format>image/svg+xml</dc:format>
    <dc:creator>
     <cc:Agent>
      <dc:title>Matplotlib v3.8.0, https://matplotlib.org/</dc:title>
     </cc:Agent>
    </dc:creator>
   </cc:Work>
  </rdf:RDF>
 </metadata>
 <defs>
  <style type="text/css">*{stroke-linejoin: round; stroke-linecap: butt}</style>
 </defs>
 <g id="figure_1">
  <g id="patch_1">
   <path d="M 0 568.666563 
L 857.464687 568.666563 
L 857.464687 0 
L 0 0 
z
" style="fill: #ffffff"/>
  </g>
  <g id="axes_1">
   <g id="patch_2">
    <path d="M 51.035938 526.48 
L 840.720937 526.48 
L 840.720937 7.2 
L 51.035938 7.2 
z
" style="fill: #ffffff"/>
   </g>
   <g id="PolyCollection_1">
    <path d="M 209.766591 243.331045 
L 209.766591 257.488492 
L 213.734857 258.836818 
L 217.703123 260.178385 
L 221.67139 261.513227 
L 225.639656 262.841379 
L 229.607922 264.162873 
L 233.576189 265.477743 
L 237.544455 266.786022 
L 241.512721 268.087744 
L 245.480988 269.38294 
L 249.449254 270.671644 
L 253.41752 271.953889 
L 257.385787 273.229707 
L 261.354053 274.499129 
L 265.322319 275.762188 
L 269.290586 277.018917 
L 273.258852 278.269345 
L 277.227118 279.513507 
L 281.195385 280.751431 
L 285.163651 281.983151 
L 289.131917 283.208696 
L 293.100184 284.428099 
L 297.06845 285.641389 
L 301.036716 286.848598 
L 305.004983 288.049755 
L 308.973249 289.244891 
L 312.941515 290.434037 
L 316.909782 291.617223 
L 320.878048 292.794477 
L 324.846314 293.965831 
L 328.814581 295.131313 
L 332.782847 296.290953 
L 336.751113 297.44478 
L 340.71938 298.592824 
L 344.687646 299.735113 
L 348.655912 300.871677 
L 352.624179 302.002543 
L 356.592445 303.127741 
L 360.560711 304.247299 
L 364.528978 305.361245 
L 368.497244 306.469607 
L 372.46551 307.572414 
L 376.433777 308.669693 
L 380.402043 309.761472 
L 384.370309 310.847778 
L 388.338576 311.928639 
L 392.306842 313.004082 
L 396.275108 314.074134 
L 400.243375 315.138823 
L 404.211641 316.198175 
L 408.179907 317.252217 
L 412.148174 318.300976 
L 416.11644 319.344478 
L 420.084706 320.382749 
L 424.052973 321.415816 
L 428.021239 322.443704 
L 431.989505 323.46644 
L 435.957772 324.48405 
L 439.926038 325.496559 
L 443.894304 326.503992 
L 443.894304 315.978939 
L 443.894304 315.978939 
L 439.926038 314.918483 
L 435.957772 313.852684 
L 431.989505 312.781516 
L 428.021239 311.704952 
L 424.052973 310.622964 
L 420.084706 309.535525 
L 416.11644 308.442608 
L 412.148174 307.344185 
L 408.179907 306.240229 
L 404.211641 305.130711 
L 400.243375 304.015603 
L 396.275108 302.894878 
L 392.306842 301.768507 
L 388.338576 300.636462 
L 384.370309 299.498713 
L 380.402043 298.355233 
L 376.433777 297.205993 
L 372.46551 296.050962 
L 368.497244 294.890113 
L 364.528978 293.723416 
L 360.560711 292.550841 
L 356.592445 291.372359 
L 352.624179 290.18794 
L 348.655912 288.997555 
L 344.687646 287.801172 
L 340.71938 286.598762 
L 336.751113 285.390295 
L 332.782847 284.17574 
L 328.814581 282.955066 
L 324.846314 281.728243 
L 320.878048 280.495239 
L 316.909782 279.256024 
L 312.941515 278.010566 
L 308.973249 276.758833 
L 305.004983 275.500795 
L 301.036716 274.236418 
L 297.06845 272.965673 
L 293.100184 271.688525 
L 289.131917 270.404944 
L 285.163651 269.114896 
L 281.195385 267.818349 
L 277.227118 266.51527 
L 273.258852 265.205627 
L 269.290586 263.889386 
L 265.322319 262.566514 
L 261.354053 261.236978 
L 257.385787 259.900744 
L 253.41752 258.557778 
L 249.449254 257.208047 
L 245.480988 255.851516 
L 241.512721 254.488151 
L 237.544455 253.117918 
L 233.576189 251.740782 
L 229.607922 250.356708 
L 225.639656 248.965662 
L 221.67139 247.567608 
L 217.703123 246.16251 
L 213.734857 244.750335 
L 209.766591 243.331045 
z
" clip-path="url(#p3591da4f57)" style="fill: url(#hc119be2cf2); fill-opacity: 0.6; stroke: #008000; stroke-opacity: 0.6; stroke-width: 2"/>
   </g>
   <g id="PolyCollection_2">
    <defs>
     <path id="md5ecbea948" d="M 51.035938 -388.373229 
L 51.035938 -388.373229 
L 55.004204 -386.637961 
L 58.97247 -384.911391 
L 62.940736 -383.193476 
L 66.909003 -381.484172 
L 70.877269 -379.783436 
L 74.845535 -378.091224 
L 78.813802 -376.407495 
L 82.782068 -374.732206 
L 86.750334 -373.065314 
L 90.718601 -371.406777 
L 94.686867 -369.756554 
L 98.655133 -368.114603 
L 102.6234 -366.480882 
L 106.591666 -364.855349 
L 110.559932 -363.237965 
L 114.528199 -361.628689 
L 118.496465 -360.027478 
L 122.464731 -358.434294 
L 126.432998 -356.849096 
L 130.401264 -355.271843 
L 134.36953 -353.702497 
L 138.337797 -352.141017 
L 142.306063 -350.587364 
L 146.274329 -349.041498 
L 150.242596 -347.503381 
L 154.210862 -345.972974 
L 158.179128 -344.450239 
L 162.147395 -342.935136 
L 166.115661 -341.427627 
L 170.083927 -339.927675 
L 174.052194 -338.435242 
L 178.02046 -336.950289 
L 181.988726 -335.47278 
L 185.956993 -334.002676 
L 189.925259 -332.539942 
L 193.893525 -331.08454 
L 197.861792 -329.636433 
L 201.830058 -328.195584 
L 205.798324 -326.761958 
L 209.766591 -311.17807 
L 213.734857 -309.829745 
L 217.703123 -308.488178 
L 221.67139 -307.153335 
L 225.639656 -305.825184 
L 229.607922 -304.50369 
L 233.576189 -303.18882 
L 237.544455 -301.88054 
L 241.512721 -300.578819 
L 245.480988 -299.283622 
L 249.449254 -297.994918 
L 253.41752 -296.712673 
L 257.385787 -295.436856 
L 261.354053 -294.167434 
L 265.322319 -292.904374 
L 269.290586 -291.647646 
L 273.258852 -290.397217 
L 277.227118 -289.153056 
L 281.195385 -287.915131 
L 285.163651 -286.683412 
L 289.131917 -285.457866 
L 293.100184 -284.238464 
L 297.06845 -283.025174 
L 301.036716 -281.817965 
L 305.004983 -280.616808 
L 308.973249 -279.421671 
L 312.941515 -278.232525 
L 316.909782 -277.04934 
L 320.878048 -275.872085 
L 324.846314 -274.700732 
L 328.814581 -273.53525 
L 332.782847 -272.375609 
L 336.751113 -271.221782 
L 340.71938 -270.073738 
L 344.687646 -268.931449 
L 348.655912 -267.794886 
L 352.624179 -266.664019 
L 356.592445 -265.538821 
L 360.560711 -264.419263 
L 364.528978 -263.305317 
L 368.497244 -262.196955 
L 372.46551 -261.094148 
L 376.433777 -259.99687 
L 380.402043 -258.905091 
L 384.370309 -257.818785 
L 388.338576 -256.737924 
L 392.306842 -255.662481 
L 396.275108 -254.592428 
L 400.243375 -253.527739 
L 404.211641 -252.468387 
L 408.179907 -251.414345 
L 412.148174 -250.365587 
L 416.11644 -249.322085 
L 420.084706 -248.283814 
L 424.052973 -247.250747 
L 428.021239 -246.222858 
L 431.989505 -245.200122 
L 435.957772 -244.182513 
L 439.926038 -243.170004 
L 443.894304 -242.16257 
L 447.862571 -251.636853 
L 451.830837 -250.621968 
L 455.799103 -249.647314 
L 459.76737 -248.712863 
L 463.735636 -247.818589 
L 467.703902 -246.964466 
L 471.672169 -246.150468 
L 475.640435 -245.37657 
L 479.608701 -244.642745 
L 483.576968 -243.948968 
L 487.545234 -243.295214 
L 491.5135 -242.681457 
L 495.481767 -242.107672 
L 499.450033 -241.573833 
L 503.418299 -241.079917 
L 507.386566 -240.625898 
L 511.354832 -240.211751 
L 515.323098 -239.837452 
L 519.291365 -239.502976 
L 523.259631 -239.208299 
L 527.227897 -238.953397 
L 531.196164 -238.738246 
L 535.16443 -238.562821 
L 539.132696 -238.427099 
L 543.100963 -238.331057 
L 547.069229 -238.274669 
L 551.037495 -238.257914 
L 555.005762 -238.280768 
L 558.974028 -238.343206 
L 562.942294 -238.445207 
L 566.910561 -238.586747 
L 570.878827 -238.767804 
L 574.847093 -238.988353 
L 578.81536 -239.248374 
L 582.783626 -239.547843 
L 586.751892 -239.886737 
L 590.720159 -240.265035 
L 594.688425 -240.682714 
L 598.656691 -241.139752 
L 602.624958 -241.636127 
L 606.593224 -242.171817 
L 610.56149 -242.7468 
L 614.529757 -243.361056 
L 618.498023 -244.014561 
L 622.466289 -244.707294 
L 626.434556 -245.439235 
L 630.402822 -246.210362 
L 634.371088 -247.020654 
L 638.339355 -247.87009 
L 642.307621 -248.758648 
L 646.275887 -249.686309 
L 650.244154 -250.65305 
L 654.21242 -251.658853 
L 658.180686 -252.703695 
L 662.148953 -253.787558 
L 666.117219 -254.91042 
L 670.085485 -256.072261 
L 674.053752 -257.273061 
L 678.022018 -258.5128 
L 681.990284 -259.791459 
L 685.958551 -261.109016 
L 689.926817 -262.465454 
L 693.895083 -263.860752 
L 697.86335 -265.29489 
L 701.831616 -266.767849 
L 705.799882 -268.279611 
L 709.768149 -269.830154 
L 713.736415 -271.419462 
L 717.704681 -273.047514 
L 721.672948 -274.714291 
L 725.641214 -276.419775 
L 729.60948 -278.163947 
L 733.577747 -279.946788 
L 737.546013 -281.76828 
L 741.514279 -283.628405 
L 745.482546 -285.527143 
L 749.450812 -287.464477 
L 753.419078 -289.440388 
L 757.387345 -291.454859 
L 761.355611 -293.507871 
L 765.323877 -295.599406 
L 769.292144 -297.729447 
L 773.26041 -299.897976 
L 777.228676 -302.104976 
L 781.196943 -304.350428 
L 785.165209 -306.634315 
L 789.133475 -308.95662 
L 793.101742 -311.317325 
L 797.070008 -313.716414 
L 801.038274 -316.153869 
L 805.006541 -318.629673 
L 808.974807 -321.143809 
L 812.943073 -323.696261 
L 816.91134 -326.287011 
L 820.879606 -328.916043 
L 824.847872 -331.583341 
L 828.816139 -334.288887 
L 832.784405 -337.032665 
L 836.752671 -339.814659 
L 840.720937 -342.634853 
L 840.720937 -169.54152 
L 840.720937 -169.54152 
L 836.752671 -170.183105 
L 832.784405 -170.827923 
L 828.816139 -171.475989 
L 824.847872 -172.127319 
L 820.879606 -172.781931 
L 816.91134 -173.439841 
L 812.943073 -174.101065 
L 808.974807 -174.765621 
L 805.006541 -175.433524 
L 801.038274 -176.104792 
L 797.070008 -176.779441 
L 793.101742 -177.45749 
L 789.133475 -178.138954 
L 785.165209 -178.823851 
L 781.196943 -179.512199 
L 777.228676 -180.204014 
L 773.26041 -180.899315 
L 769.292144 -181.598118 
L 765.323877 -182.300442 
L 761.355611 -183.006304 
L 757.387345 -183.715722 
L 753.419078 -184.428713 
L 749.450812 -185.145297 
L 745.482546 -185.865491 
L 741.514279 -186.589312 
L 737.546013 -187.316781 
L 733.577747 -188.047914 
L 729.60948 -188.78273 
L 725.641214 -189.521248 
L 721.672948 -190.263487 
L 717.704681 -191.009465 
L 713.736415 -191.759201 
L 709.768149 -192.512714 
L 705.799882 -193.270023 
L 701.831616 -194.031147 
L 697.86335 -194.796105 
L 693.895083 -195.564917 
L 689.926817 -196.337603 
L 685.958551 -197.114181 
L 681.990284 -197.894671 
L 678.022018 -198.679093 
L 674.053752 -199.467467 
L 670.085485 -200.259812 
L 666.117219 -201.056149 
L 662.148953 -201.856498 
L 658.180686 -202.660879 
L 654.21242 -203.469312 
L 650.244154 -204.281818 
L 646.275887 -205.098417 
L 642.307621 -205.91913 
L 638.339355 -206.743977 
L 634.371088 -207.57298 
L 630.402822 -208.406159 
L 626.434556 -209.243536 
L 622.466289 -210.085131 
L 618.498023 -210.930966 
L 614.529757 -211.781062 
L 610.56149 -212.63544 
L 606.593224 -213.494123 
L 602.624958 -214.357132 
L 598.656691 -215.224488 
L 594.688425 -216.096214 
L 590.720159 -216.972331 
L 586.751892 -217.852862 
L 582.783626 -218.737829 
L 578.81536 -219.627254 
L 574.847093 -220.52116 
L 570.878827 -221.419569 
L 566.910561 -222.322504 
L 562.942294 -223.229988 
L 558.974028 -224.142044 
L 555.005762 -225.058694 
L 551.037495 -225.979962 
L 547.069229 -226.905872 
L 543.100963 -227.836446 
L 539.132696 -228.771707 
L 535.16443 -229.711681 
L 531.196164 -230.65639 
L 527.227897 -231.605858 
L 523.259631 -232.560109 
L 519.291365 -233.519168 
L 515.323098 -234.483058 
L 511.354832 -235.451804 
L 507.386566 -236.425431 
L 503.418299 -237.403962 
L 499.450033 -238.387423 
L 495.481767 -239.375838 
L 491.5135 -240.369233 
L 487.545234 -241.367632 
L 483.576968 -242.371061 
L 479.608701 -243.379545 
L 475.640435 -244.39311 
L 471.672169 -245.41178 
L 467.703902 -246.435583 
L 463.735636 -247.464543 
L 459.76737 -248.498687 
L 455.799103 -249.53804 
L 451.830837 -250.58263 
L 447.862571 -251.632482 
L 443.894304 -252.687623 
L 439.926038 -253.74808 
L 435.957772 -254.813878 
L 431.989505 -255.885047 
L 428.021239 -256.961611 
L 424.052973 -258.043599 
L 420.084706 -259.131037 
L 416.11644 -260.223954 
L 412.148174 -261.322377 
L 408.179907 -262.426334 
L 404.211641 -263.535852 
L 400.243375 -264.650959 
L 396.275108 -265.771684 
L 392.306842 -266.898055 
L 388.338576 -268.030101 
L 384.370309 -269.167849 
L 380.402043 -270.311329 
L 376.433777 -271.46057 
L 372.46551 -272.6156 
L 368.497244 -273.776449 
L 364.528978 -274.943147 
L 360.560711 -276.115721 
L 356.592445 -277.294203 
L 352.624179 -278.478622 
L 348.655912 -279.669008 
L 344.687646 -280.86539 
L 340.71938 -282.0678 
L 336.751113 -283.276267 
L 332.782847 -284.490822 
L 328.814581 -285.711496 
L 324.846314 -286.93832 
L 320.878048 -288.171323 
L 316.909782 -289.410539 
L 312.941515 -290.655997 
L 308.973249 -291.907729 
L 305.004983 -293.165768 
L 301.036716 -294.430144 
L 297.06845 -295.70089 
L 293.100184 -296.978037 
L 289.131917 -298.261619 
L 285.163651 -299.551667 
L 281.195385 -300.848214 
L 277.227118 -302.151292 
L 273.258852 -303.460936 
L 269.290586 -304.777177 
L 265.322319 -306.100048 
L 261.354053 -307.429585 
L 257.385787 -308.765819 
L 253.41752 -310.108784 
L 249.449254 -311.458516 
L 245.480988 -312.815047 
L 241.512721 -314.178411 
L 237.544455 -315.548644 
L 233.576189 -316.925781 
L 229.607922 -318.309854 
L 225.639656 -319.700901 
L 221.67139 -321.098955 
L 217.703123 -322.504052 
L 213.734857 -323.916228 
L 209.766591 -325.335518 
L 205.798324 -326.761958 
L 201.830058 -328.195584 
L 197.861792 -329.636433 
L 193.893525 -331.08454 
L 189.925259 -332.539942 
L 185.956993 -334.002676 
L 181.988726 -335.47278 
L 178.02046 -336.950289 
L 174.052194 -338.435242 
L 170.083927 -339.927675 
L 166.115661 -341.427627 
L 162.147395 -342.935136 
L 158.179128 -344.450239 
L 154.210862 -345.972974 
L 150.242596 -347.503381 
L 146.274329 -349.041498 
L 142.306063 -350.587364 
L 138.337797 -352.141017 
L 134.36953 -353.702497 
L 130.401264 -355.271843 
L 126.432998 -356.849096 
L 122.464731 -358.434294 
L 118.496465 -360.027478 
L 114.528199 -361.628689 
L 110.559932 -363.237965 
L 106.591666 -364.855349 
L 102.6234 -366.480882 
L 98.655133 -368.114603 
L 94.686867 -369.756554 
L 90.718601 -371.406777 
L 86.750334 -373.065314 
L 82.782068 -374.732206 
L 78.813802 -376.407495 
L 74.845535 -378.091224 
L 70.877269 -379.783436 
L 66.909003 -381.484172 
L 62.940736 -383.193476 
L 58.97247 -384.911391 
L 55.004204 -386.637961 
L 51.035938 -388.373229 
z
" style="stroke: #ff0000; stroke-opacity: 0.2"/>
    </defs>
    <g clip-path="url(#p3591da4f57)">
     <use xlink:href="#md5ecbea948" x="0" y="568.666563" style="fill: #ff0000; fill-opacity: 0.2; stroke: #ff0000; stroke-opacity: 0.2"/>
    </g>
   </g>
   <g id="matplotlib.axis_1">
    <g id="xtick_1">
     <g id="line2d_1">
      <path d="M 51.035938 526.48 
L 51.035938 7.2 
" clip-path="url(#p3591da4f57)" style="fill: none; stroke-dasharray: 2.96,1.28; stroke-dashoffset: 0; stroke: #b0b0b0; stroke-opacity: 0.6; stroke-width: 0.8"/>
     </g>
     <g id="line2d_2">
      <defs>
       <path id="m6c21ea3737" d="M 0 0 
L 0 3.5 
" style="stroke: #000000; stroke-width: 0.8"/>
      </defs>
      <g>
       <use xlink:href="#m6c21ea3737" x="51.035938" y="526.48" style="stroke: #000000; stroke-width: 0.8"/>
      </g>
     </g>
     <g id="text_1">
      <!-- 0 -->
      <g transform="translate(47.854688 541.078438) scale(0.1 -0.1)">
       <defs>
        <path id="DejaVuSerif-30" d="M 2034 219 
Q 2513 219 2750 744 
Q 2988 1269 2988 2328 
Q 2988 3391 2750 3916 
Q 2513 4441 2034 4441 
Q 1556 4441 1318 3916 
Q 1081 3391 1081 2328 
Q 1081 1269 1318 744 
Q 1556 219 2034 219 
z
M 2034 -91 
Q 1275 -91 848 546 
Q 422 1184 422 2328 
Q 422 3475 848 4112 
Q 1275 4750 2034 4750 
Q 2797 4750 3222 4112 
Q 3647 3475 3647 2328 
Q 3647 1184 3222 546 
Q 2797 -91 2034 -91 
z
" transform="scale(0.015625)"/>
       </defs>
       <use xlink:href="#DejaVuSerif-30"/>
      </g>
     </g>
    </g>
    <g id="xtick_2">
     <g id="line2d_3">
      <path d="M 208.972938 526.48 
L 208.972938 7.2 
" clip-path="url(#p3591da4f57)" style="fill: none; stroke-dasharray: 2.96,1.28; stroke-dashoffset: 0; stroke: #b0b0b0; stroke-opacity: 0.6; stroke-width: 0.8"/>
     </g>
     <g id="line2d_4">
      <g>
       <use xlink:href="#m6c21ea3737" x="208.972938" y="526.48" style="stroke: #000000; stroke-width: 0.8"/>
      </g>
     </g>
     <g id="text_2">
      <!-- 20 -->
      <g transform="translate(202.610437 541.078438) scale(0.1 -0.1)">
       <defs>
        <path id="DejaVuSerif-32" d="M 819 3553 
L 469 3553 
L 469 4384 
Q 803 4563 1142 4656 
Q 1481 4750 1806 4750 
Q 2534 4750 2956 4397 
Q 3378 4044 3378 3438 
Q 3378 2753 2422 1800 
Q 2347 1728 2309 1691 
L 1131 513 
L 3078 513 
L 3078 1088 
L 3444 1088 
L 3444 0 
L 434 0 
L 434 341 
L 1850 1753 
Q 2319 2222 2519 2614 
Q 2719 3006 2719 3438 
Q 2719 3909 2473 4175 
Q 2228 4441 1797 4441 
Q 1350 4441 1106 4219 
Q 863 3997 819 3553 
z
" transform="scale(0.015625)"/>
       </defs>
       <use xlink:href="#DejaVuSerif-32"/>
       <use xlink:href="#DejaVuSerif-30" x="63.623047"/>
      </g>
     </g>
    </g>
    <g id="xtick_3">
     <g id="line2d_5">
      <path d="M 366.909937 526.48 
L 366.909937 7.2 
" clip-path="url(#p3591da4f57)" style="fill: none; stroke-dasharray: 2.96,1.28; stroke-dashoffset: 0; stroke: #b0b0b0; stroke-opacity: 0.6; stroke-width: 0.8"/>
     </g>
     <g id="line2d_6">
      <g>
       <use xlink:href="#m6c21ea3737" x="366.909937" y="526.48" style="stroke: #000000; stroke-width: 0.8"/>
      </g>
     </g>
     <g id="text_3">
      <!-- 40 -->
      <g transform="translate(360.547437 541.078438) scale(0.1 -0.1)">
       <defs>
        <path id="DejaVuSerif-34" d="M 2234 1581 
L 2234 4063 
L 641 1581 
L 2234 1581 
z
M 3609 0 
L 1484 0 
L 1484 331 
L 2234 331 
L 2234 1247 
L 197 1247 
L 197 1588 
L 2241 4750 
L 2859 4750 
L 2859 1581 
L 3750 1581 
L 3750 1247 
L 2859 1247 
L 2859 331 
L 3609 331 
L 3609 0 
z
" transform="scale(0.015625)"/>
       </defs>
       <use xlink:href="#DejaVuSerif-34"/>
       <use xlink:href="#DejaVuSerif-30" x="63.623047"/>
      </g>
     </g>
    </g>
    <g id="xtick_4">
     <g id="line2d_7">
      <path d="M 524.846937 526.48 
L 524.846937 7.2 
" clip-path="url(#p3591da4f57)" style="fill: none; stroke-dasharray: 2.96,1.28; stroke-dashoffset: 0; stroke: #b0b0b0; stroke-opacity: 0.6; stroke-width: 0.8"/>
     </g>
     <g id="line2d_8">
      <g>
       <use xlink:href="#m6c21ea3737" x="524.846937" y="526.48" style="stroke: #000000; stroke-width: 0.8"/>
      </g>
     </g>
     <g id="text_4">
      <!-- 60 -->
      <g transform="translate(518.484438 541.078438) scale(0.1 -0.1)">
       <defs>
        <path id="DejaVuSerif-36" d="M 2094 219 
Q 2534 219 2771 542 
Q 3009 866 3009 1472 
Q 3009 2078 2771 2401 
Q 2534 2725 2094 2725 
Q 1647 2725 1412 2412 
Q 1178 2100 1178 1509 
Q 1178 888 1415 553 
Q 1653 219 2094 219 
z
M 1075 2569 
Q 1288 2803 1556 2918 
Q 1825 3034 2163 3034 
Q 2859 3034 3264 2615 
Q 3669 2197 3669 1472 
Q 3669 763 3233 336 
Q 2797 -91 2069 -91 
Q 1278 -91 853 498 
Q 428 1088 428 2181 
Q 428 3406 931 4078 
Q 1434 4750 2350 4750 
Q 2597 4750 2869 4703 
Q 3141 4656 3425 4563 
L 3425 3794 
L 3072 3794 
Q 3034 4109 2831 4275 
Q 2628 4441 2284 4441 
Q 1678 4441 1381 3981 
Q 1084 3522 1075 2569 
z
" transform="scale(0.015625)"/>
       </defs>
       <use xlink:href="#DejaVuSerif-36"/>
       <use xlink:href="#DejaVuSerif-30" x="63.623047"/>
      </g>
     </g>
    </g>
    <g id="xtick_5">
     <g id="line2d_9">
      <path d="M 682.783937 526.48 
L 682.783937 7.2 
" clip-path="url(#p3591da4f57)" style="fill: none; stroke-dasharray: 2.96,1.28; stroke-dashoffset: 0; stroke: #b0b0b0; stroke-opacity: 0.6; stroke-width: 0.8"/>
     </g>
     <g id="line2d_10">
      <g>
       <use xlink:href="#m6c21ea3737" x="682.783937" y="526.48" style="stroke: #000000; stroke-width: 0.8"/>
      </g>
     </g>
     <g id="text_5">
      <!-- 80 -->
      <g transform="translate(676.421438 541.078438) scale(0.1 -0.1)">
       <defs>
        <path id="DejaVuSerif-38" d="M 2981 1275 
Q 2981 1775 2732 2051 
Q 2484 2328 2034 2328 
Q 1584 2328 1336 2051 
Q 1088 1775 1088 1275 
Q 1088 772 1336 495 
Q 1584 219 2034 219 
Q 2484 219 2732 495 
Q 2981 772 2981 1275 
z
M 2853 3541 
Q 2853 3966 2637 4203 
Q 2422 4441 2034 4441 
Q 1650 4441 1433 4203 
Q 1216 3966 1216 3541 
Q 1216 3113 1433 2875 
Q 1650 2638 2034 2638 
Q 2422 2638 2637 2875 
Q 2853 3113 2853 3541 
z
M 2516 2484 
Q 3047 2413 3344 2092 
Q 3641 1772 3641 1275 
Q 3641 619 3225 264 
Q 2809 -91 2034 -91 
Q 1263 -91 845 264 
Q 428 619 428 1275 
Q 428 1772 725 2092 
Q 1022 2413 1556 2484 
Q 1084 2569 832 2842 
Q 581 3116 581 3541 
Q 581 4103 968 4426 
Q 1356 4750 2034 4750 
Q 2713 4750 3100 4426 
Q 3488 4103 3488 3541 
Q 3488 3116 3236 2842 
Q 2984 2569 2516 2484 
z
" transform="scale(0.015625)"/>
       </defs>
       <use xlink:href="#DejaVuSerif-38"/>
       <use xlink:href="#DejaVuSerif-30" x="63.623047"/>
      </g>
     </g>
    </g>
    <g id="xtick_6">
     <g id="line2d_11">
      <path d="M 840.720937 526.48 
L 840.720937 7.2 
" clip-path="url(#p3591da4f57)" style="fill: none; stroke-dasharray: 2.96,1.28; stroke-dashoffset: 0; stroke: #b0b0b0; stroke-opacity: 0.6; stroke-width: 0.8"/>
     </g>
     <g id="line2d_12">
      <g>
       <use xlink:href="#m6c21ea3737" x="840.720937" y="526.48" style="stroke: #000000; stroke-width: 0.8"/>
      </g>
     </g>
     <g id="text_6">
      <!-- 100 -->
      <g transform="translate(831.177187 541.078438) scale(0.1 -0.1)">
       <defs>
        <path id="DejaVuSerif-31" d="M 909 0 
L 909 331 
L 1722 331 
L 1722 4213 
L 781 3603 
L 781 4013 
L 1919 4750 
L 2350 4750 
L 2350 331 
L 3163 331 
L 3163 0 
L 909 0 
z
" transform="scale(0.015625)"/>
       </defs>
       <use xlink:href="#DejaVuSerif-31"/>
       <use xlink:href="#DejaVuSerif-30" x="63.623047"/>
       <use xlink:href="#DejaVuSerif-30" x="127.246094"/>
      </g>
     </g>
    </g>
    <g id="text_7">
     <!-- Melhoria na Eficiência Energética -->
     <g transform="translate(324.53125 558.355938) scale(0.14 -0.14)">
      <defs>
       <path id="DejaVuSerif-4d" d="M 353 0 
L 353 331 
L 947 331 
L 947 4331 
L 319 4331 
L 319 4666 
L 1678 4666 
L 3316 1344 
L 4953 4666 
L 6228 4666 
L 6228 4331 
L 5606 4331 
L 5606 331 
L 6203 331 
L 6203 0 
L 4378 0 
L 4378 331 
L 4972 331 
L 4972 3938 
L 3372 684 
L 2931 684 
L 1331 3938 
L 1331 331 
L 1925 331 
L 1925 0 
L 353 0 
z
" transform="scale(0.015625)"/>
       <path id="DejaVuSerif-65" d="M 3469 1600 
L 991 1600 
L 991 1575 
Q 991 903 1244 561 
Q 1497 219 1991 219 
Q 2369 219 2611 417 
Q 2853 616 2950 1006 
L 3413 1006 
Q 3275 459 2904 184 
Q 2534 -91 1931 -91 
Q 1203 -91 761 389 
Q 319 869 319 1663 
Q 319 2450 753 2931 
Q 1188 3413 1894 3413 
Q 2647 3413 3050 2948 
Q 3453 2484 3469 1600 
z
M 2791 1931 
Q 2772 2513 2545 2808 
Q 2319 3103 1894 3103 
Q 1497 3103 1269 2806 
Q 1041 2509 991 1931 
L 2791 1931 
z
" transform="scale(0.015625)"/>
       <path id="DejaVuSerif-6c" d="M 1313 331 
L 1856 331 
L 1856 0 
L 184 0 
L 184 331 
L 738 331 
L 738 4531 
L 184 4531 
L 184 4863 
L 1313 4863 
L 1313 331 
z
" transform="scale(0.015625)"/>
       <path id="DejaVuSerif-68" d="M 263 0 
L 263 331 
L 781 331 
L 781 4531 
L 231 4531 
L 231 4863 
L 1356 4863 
L 1356 2731 
Q 1516 3069 1770 3241 
Q 2025 3413 2363 3413 
Q 2913 3413 3172 3097 
Q 3431 2781 3431 2113 
L 3431 331 
L 3944 331 
L 3944 0 
L 2356 0 
L 2356 331 
L 2853 331 
L 2853 1931 
Q 2853 2541 2704 2764 
Q 2556 2988 2175 2988 
Q 1775 2988 1565 2697 
Q 1356 2406 1356 1850 
L 1356 331 
L 1856 331 
L 1856 0 
L 263 0 
z
" transform="scale(0.015625)"/>
       <path id="DejaVuSerif-6f" d="M 1925 219 
Q 2388 219 2623 584 
Q 2859 950 2859 1663 
Q 2859 2375 2623 2739 
Q 2388 3103 1925 3103 
Q 1463 3103 1227 2739 
Q 991 2375 991 1663 
Q 991 950 1228 584 
Q 1466 219 1925 219 
z
M 1925 -91 
Q 1200 -91 759 389 
Q 319 869 319 1663 
Q 319 2456 758 2934 
Q 1197 3413 1925 3413 
Q 2653 3413 3092 2934 
Q 3531 2456 3531 1663 
Q 3531 869 3092 389 
Q 2653 -91 1925 -91 
z
" transform="scale(0.015625)"/>
       <path id="DejaVuSerif-72" d="M 3059 3328 
L 3059 2497 
L 2728 2497 
Q 2713 2744 2591 2866 
Q 2469 2988 2234 2988 
Q 1809 2988 1582 2694 
Q 1356 2400 1356 1850 
L 1356 331 
L 2022 331 
L 2022 0 
L 263 0 
L 263 331 
L 781 331 
L 781 2994 
L 231 2994 
L 231 3322 
L 1356 3322 
L 1356 2731 
Q 1525 3078 1790 3245 
Q 2056 3413 2438 3413 
Q 2578 3413 2733 3391 
Q 2888 3369 3059 3328 
z
" transform="scale(0.015625)"/>
       <path id="DejaVuSerif-69" d="M 622 4353 
Q 622 4497 726 4603 
Q 831 4709 978 4709 
Q 1122 4709 1226 4603 
Q 1331 4497 1331 4353 
Q 1331 4206 1228 4103 
Q 1125 4000 978 4000 
Q 831 4000 726 4103 
Q 622 4206 622 4353 
z
M 1356 331 
L 1900 331 
L 1900 0 
L 231 0 
L 231 331 
L 781 331 
L 781 2988 
L 231 2988 
L 231 3322 
L 1356 3322 
L 1356 331 
z
" transform="scale(0.015625)"/>
       <path id="DejaVuSerif-61" d="M 2547 1044 
L 2547 1747 
L 1806 1747 
Q 1378 1747 1168 1562 
Q 959 1378 959 997 
Q 959 650 1171 447 
Q 1384 244 1747 244 
Q 2106 244 2326 466 
Q 2547 688 2547 1044 
z
M 3122 2075 
L 3122 331 
L 3634 331 
L 3634 0 
L 2547 0 
L 2547 359 
Q 2356 128 2106 18 
Q 1856 -91 1522 -91 
Q 969 -91 644 203 
Q 319 497 319 997 
Q 319 1513 691 1797 
Q 1063 2081 1741 2081 
L 2547 2081 
L 2547 2309 
Q 2547 2688 2317 2895 
Q 2088 3103 1672 3103 
Q 1328 3103 1125 2947 
Q 922 2791 872 2484 
L 575 2484 
L 575 3156 
Q 875 3284 1158 3348 
Q 1441 3413 1709 3413 
Q 2400 3413 2761 3070 
Q 3122 2728 3122 2075 
z
" transform="scale(0.015625)"/>
       <path id="DejaVuSerif-20" transform="scale(0.015625)"/>
       <path id="DejaVuSerif-6e" d="M 263 0 
L 263 331 
L 781 331 
L 781 2988 
L 231 2988 
L 231 3322 
L 1356 3322 
L 1356 2731 
Q 1516 3069 1770 3241 
Q 2025 3413 2363 3413 
Q 2913 3413 3172 3097 
Q 3431 2781 3431 2113 
L 3431 331 
L 3944 331 
L 3944 0 
L 2356 0 
L 2356 331 
L 2853 331 
L 2853 1931 
Q 2853 2541 2703 2767 
Q 2553 2994 2175 2994 
Q 1775 2994 1565 2701 
Q 1356 2409 1356 1850 
L 1356 331 
L 1856 331 
L 1856 0 
L 263 0 
z
" transform="scale(0.015625)"/>
       <path id="DejaVuSerif-45" d="M 353 0 
L 353 331 
L 947 331 
L 947 4331 
L 353 4331 
L 353 4666 
L 4109 4666 
L 4109 3628 
L 3725 3628 
L 3725 4281 
L 1581 4281 
L 1581 2719 
L 3109 2719 
L 3109 3303 
L 3494 3303 
L 3494 1753 
L 3109 1753 
L 3109 2338 
L 1581 2338 
L 1581 384 
L 3775 384 
L 3775 1038 
L 4159 1038 
L 4159 0 
L 353 0 
z
" transform="scale(0.015625)"/>
       <path id="DejaVuSerif-66" d="M 2753 4078 
L 2450 4078 
Q 2447 4313 2317 4434 
Q 2188 4556 1941 4556 
Q 1619 4556 1487 4379 
Q 1356 4203 1356 3750 
L 1356 3322 
L 2284 3322 
L 2284 2988 
L 1356 2988 
L 1356 331 
L 2094 331 
L 2094 0 
L 231 0 
L 231 331 
L 781 331 
L 781 2988 
L 231 2988 
L 231 3322 
L 781 3322 
L 781 3738 
Q 781 4294 1070 4578 
Q 1359 4863 1919 4863 
Q 2128 4863 2337 4825 
Q 2547 4788 2753 4709 
L 2753 4078 
z
" transform="scale(0.015625)"/>
       <path id="DejaVuSerif-63" d="M 3291 997 
Q 3169 466 2822 187 
Q 2475 -91 1925 -91 
Q 1200 -91 759 389 
Q 319 869 319 1663 
Q 319 2459 759 2936 
Q 1200 3413 1925 3413 
Q 2241 3413 2553 3339 
Q 2866 3266 3181 3116 
L 3181 2266 
L 2847 2266 
Q 2781 2703 2561 2903 
Q 2341 3103 1931 3103 
Q 1466 3103 1228 2742 
Q 991 2381 991 1663 
Q 991 944 1227 581 
Q 1463 219 1931 219 
Q 2303 219 2525 412 
Q 2747 606 2828 997 
L 3291 997 
z
" transform="scale(0.015625)"/>
       <path id="DejaVuSerif-ea" d="M 3469 1600 
L 991 1600 
L 991 1575 
Q 991 903 1244 561 
Q 1497 219 1991 219 
Q 2369 219 2611 417 
Q 2853 616 2950 1006 
L 3413 1006 
Q 3275 459 2904 184 
Q 2534 -91 1931 -91 
Q 1203 -91 761 389 
Q 319 869 319 1663 
Q 319 2450 753 2931 
Q 1188 3413 1894 3413 
Q 2647 3413 3050 2948 
Q 3453 2484 3469 1600 
z
M 2791 1931 
Q 2772 2513 2545 2808 
Q 2319 3103 1894 3103 
Q 1497 3103 1269 2806 
Q 1041 2509 991 1931 
L 2791 1931 
z
M 1634 5119 
L 2159 5119 
L 2893 3944 
L 2530 3944 
L 1896 4756 
L 1262 3944 
L 899 3944 
L 1634 5119 
z
" transform="scale(0.015625)"/>
       <path id="DejaVuSerif-67" d="M 3359 2988 
L 3359 72 
Q 3359 -644 2965 -1033 
Q 2572 -1422 1844 -1422 
Q 1516 -1422 1216 -1362 
Q 916 -1303 641 -1184 
L 641 -488 
L 941 -488 
Q 997 -813 1206 -963 
Q 1416 -1113 1806 -1113 
Q 2313 -1113 2548 -827 
Q 2784 -541 2784 72 
L 2784 519 
Q 2616 206 2355 57 
Q 2094 -91 1709 -91 
Q 1097 -91 708 395 
Q 319 881 319 1663 
Q 319 2444 706 2928 
Q 1094 3413 1709 3413 
Q 2094 3413 2355 3264 
Q 2616 3116 2784 2803 
L 2784 3322 
L 3909 3322 
L 3909 2988 
L 3359 2988 
z
M 2784 1825 
Q 2784 2422 2554 2737 
Q 2325 3053 1888 3053 
Q 1444 3053 1217 2703 
Q 991 2353 991 1663 
Q 991 975 1217 622 
Q 1444 269 1888 269 
Q 2325 269 2554 583 
Q 2784 897 2784 1497 
L 2784 1825 
z
" transform="scale(0.015625)"/>
       <path id="DejaVuSerif-e9" d="M 3469 1600 
L 991 1600 
L 991 1575 
Q 991 903 1244 561 
Q 1497 219 1991 219 
Q 2369 219 2611 417 
Q 2853 616 2950 1006 
L 3413 1006 
Q 3275 459 2904 184 
Q 2534 -91 1931 -91 
Q 1203 -91 761 389 
Q 319 869 319 1663 
Q 319 2450 753 2931 
Q 1188 3413 1894 3413 
Q 2647 3413 3050 2948 
Q 3453 2484 3469 1600 
z
M 2791 1931 
Q 2772 2513 2545 2808 
Q 2319 3103 1894 3103 
Q 1497 3103 1269 2806 
Q 1041 2509 991 1931 
L 2791 1931 
z
M 2330 5119 
L 2952 5119 
L 1890 3944 
L 1524 3944 
L 2330 5119 
z
" transform="scale(0.015625)"/>
       <path id="DejaVuSerif-74" d="M 691 2988 
L 184 2988 
L 184 3322 
L 691 3322 
L 691 4353 
L 1269 4353 
L 1269 3322 
L 2350 3322 
L 2350 2988 
L 1269 2988 
L 1269 878 
Q 1269 456 1350 337 
Q 1431 219 1650 219 
Q 1875 219 1978 351 
Q 2081 484 2088 781 
L 2522 781 
Q 2497 328 2275 118 
Q 2053 -91 1600 -91 
Q 1103 -91 897 129 
Q 691 350 691 878 
L 691 2988 
z
" transform="scale(0.015625)"/>
      </defs>
      <use xlink:href="#DejaVuSerif-4d"/>
      <use xlink:href="#DejaVuSerif-65" x="102.392578"/>
      <use xlink:href="#DejaVuSerif-6c" x="161.572266"/>
      <use xlink:href="#DejaVuSerif-68" x="193.554688"/>
      <use xlink:href="#DejaVuSerif-6f" x="257.958984"/>
      <use xlink:href="#DejaVuSerif-72" x="318.164062"/>
      <use xlink:href="#DejaVuSerif-69" x="365.966797"/>
      <use xlink:href="#DejaVuSerif-61" x="397.949219"/>
      <use xlink:href="#DejaVuSerif-20" x="457.568359"/>
      <use xlink:href="#DejaVuSerif-6e" x="489.355469"/>
      <use xlink:href="#DejaVuSerif-61" x="553.759766"/>
      <use xlink:href="#DejaVuSerif-20" x="613.378906"/>
      <use xlink:href="#DejaVuSerif-45" x="645.166016"/>
      <use xlink:href="#DejaVuSerif-66" x="718.164062"/>
      <use xlink:href="#DejaVuSerif-69" x="755.175781"/>
      <use xlink:href="#DejaVuSerif-63" x="787.158203"/>
      <use xlink:href="#DejaVuSerif-69" x="843.164062"/>
      <use xlink:href="#DejaVuSerif-ea" x="875.146484"/>
      <use xlink:href="#DejaVuSerif-6e" x="934.326172"/>
      <use xlink:href="#DejaVuSerif-63" x="998.730469"/>
      <use xlink:href="#DejaVuSerif-69" x="1054.736328"/>
      <use xlink:href="#DejaVuSerif-61" x="1086.71875"/>
      <use xlink:href="#DejaVuSerif-20" x="1146.337891"/>
      <use xlink:href="#DejaVuSerif-45" x="1178.125"/>
      <use xlink:href="#DejaVuSerif-6e" x="1251.123047"/>
      <use xlink:href="#DejaVuSerif-65" x="1315.527344"/>
      <use xlink:href="#DejaVuSerif-72" x="1374.707031"/>
      <use xlink:href="#DejaVuSerif-67" x="1422.509766"/>
      <use xlink:href="#DejaVuSerif-e9" x="1486.523438"/>
      <use xlink:href="#DejaVuSerif-74" x="1545.703125"/>
      <use xlink:href="#DejaVuSerif-69" x="1585.888672"/>
      <use xlink:href="#DejaVuSerif-63" x="1617.871094"/>
      <use xlink:href="#DejaVuSerif-61" x="1673.876953"/>
     </g>
    </g>
   </g>
   <g id="matplotlib.axis_2">
    <g id="ytick_1">
     <g id="line2d_13">
      <path d="M 51.035938 526.48 
L 840.720937 526.48 
" clip-path="url(#p3591da4f57)" style="fill: none; stroke-dasharray: 2.96,1.28; stroke-dashoffset: 0; stroke: #b0b0b0; stroke-opacity: 0.6; stroke-width: 0.8"/>
     </g>
     <g id="line2d_14">
      <defs>
       <path id="m4f5f46fbfa" d="M 0 0 
L -3.5 0 
" style="stroke: #000000; stroke-width: 0.8"/>
      </defs>
      <g>
       <use xlink:href="#m4f5f46fbfa" x="51.035938" y="526.48" style="stroke: #000000; stroke-width: 0.8"/>
      </g>
     </g>
     <g id="text_8">
      <!-- 0 -->
      <g transform="translate(37.673438 530.279219) scale(0.1 -0.1)">
       <use xlink:href="#DejaVuSerif-30"/>
      </g>
     </g>
    </g>
    <g id="ytick_2">
     <g id="line2d_15">
      <path d="M 51.035938 457.242667 
L 840.720937 457.242667 
" clip-path="url(#p3591da4f57)" style="fill: none; stroke-dasharray: 2.96,1.28; stroke-dashoffset: 0; stroke: #b0b0b0; stroke-opacity: 0.6; stroke-width: 0.8"/>
     </g>
     <g id="line2d_16">
      <g>
       <use xlink:href="#m4f5f46fbfa" x="51.035938" y="457.242667" style="stroke: #000000; stroke-width: 0.8"/>
      </g>
     </g>
     <g id="text_9">
      <!-- 20 -->
      <g transform="translate(31.310938 461.041885) scale(0.1 -0.1)">
       <use xlink:href="#DejaVuSerif-32"/>
       <use xlink:href="#DejaVuSerif-30" x="63.623047"/>
      </g>
     </g>
    </g>
    <g id="ytick_3">
     <g id="line2d_17">
      <path d="M 51.035938 388.005333 
L 840.720937 388.005333 
" clip-path="url(#p3591da4f57)" style="fill: none; stroke-dasharray: 2.96,1.28; stroke-dashoffset: 0; stroke: #b0b0b0; stroke-opacity: 0.6; stroke-width: 0.8"/>
     </g>
     <g id="line2d_18">
      <g>
       <use xlink:href="#m4f5f46fbfa" x="51.035938" y="388.005333" style="stroke: #000000; stroke-width: 0.8"/>
      </g>
     </g>
     <g id="text_10">
      <!-- 40 -->
      <g transform="translate(31.310938 391.804552) scale(0.1 -0.1)">
       <use xlink:href="#DejaVuSerif-34"/>
       <use xlink:href="#DejaVuSerif-30" x="63.623047"/>
      </g>
     </g>
    </g>
    <g id="ytick_4">
     <g id="line2d_19">
      <path d="M 51.035938 318.768 
L 840.720937 318.768 
" clip-path="url(#p3591da4f57)" style="fill: none; stroke-dasharray: 2.96,1.28; stroke-dashoffset: 0; stroke: #b0b0b0; stroke-opacity: 0.6; stroke-width: 0.8"/>
     </g>
     <g id="line2d_20">
      <g>
       <use xlink:href="#m4f5f46fbfa" x="51.035938" y="318.768" style="stroke: #000000; stroke-width: 0.8"/>
      </g>
     </g>
     <g id="text_11">
      <!-- 60 -->
      <g transform="translate(31.310938 322.567219) scale(0.1 -0.1)">
       <use xlink:href="#DejaVuSerif-36"/>
       <use xlink:href="#DejaVuSerif-30" x="63.623047"/>
      </g>
     </g>
    </g>
    <g id="ytick_5">
     <g id="line2d_21">
      <path d="M 51.035938 249.530667 
L 840.720937 249.530667 
" clip-path="url(#p3591da4f57)" style="fill: none; stroke-dasharray: 2.96,1.28; stroke-dashoffset: 0; stroke: #b0b0b0; stroke-opacity: 0.6; stroke-width: 0.8"/>
     </g>
     <g id="line2d_22">
      <g>
       <use xlink:href="#m4f5f46fbfa" x="51.035938" y="249.530667" style="stroke: #000000; stroke-width: 0.8"/>
      </g>
     </g>
     <g id="text_12">
      <!-- 80 -->
      <g transform="translate(31.310938 253.329885) scale(0.1 -0.1)">
       <use xlink:href="#DejaVuSerif-38"/>
       <use xlink:href="#DejaVuSerif-30" x="63.623047"/>
      </g>
     </g>
    </g>
    <g id="ytick_6">
     <g id="line2d_23">
      <path d="M 51.035938 180.293333 
L 840.720937 180.293333 
" clip-path="url(#p3591da4f57)" style="fill: none; stroke-dasharray: 2.96,1.28; stroke-dashoffset: 0; stroke: #b0b0b0; stroke-opacity: 0.6; stroke-width: 0.8"/>
     </g>
     <g id="line2d_24">
      <g>
       <use xlink:href="#m4f5f46fbfa" x="51.035938" y="180.293333" style="stroke: #000000; stroke-width: 0.8"/>
      </g>
     </g>
     <g id="text_13">
      <!-- 100 -->
      <g transform="translate(24.948438 184.092552) scale(0.1 -0.1)">
       <use xlink:href="#DejaVuSerif-31"/>
       <use xlink:href="#DejaVuSerif-30" x="63.623047"/>
       <use xlink:href="#DejaVuSerif-30" x="127.246094"/>
      </g>
     </g>
    </g>
    <g id="ytick_7">
     <g id="line2d_25">
      <path d="M 51.035938 111.056 
L 840.720937 111.056 
" clip-path="url(#p3591da4f57)" style="fill: none; stroke-dasharray: 2.96,1.28; stroke-dashoffset: 0; stroke: #b0b0b0; stroke-opacity: 0.6; stroke-width: 0.8"/>
     </g>
     <g id="line2d_26">
      <g>
       <use xlink:href="#m4f5f46fbfa" x="51.035938" y="111.056" style="stroke: #000000; stroke-width: 0.8"/>
      </g>
     </g>
     <g id="text_14">
      <!-- 120 -->
      <g transform="translate(24.948438 114.855219) scale(0.1 -0.1)">
       <use xlink:href="#DejaVuSerif-31"/>
       <use xlink:href="#DejaVuSerif-32" x="63.623047"/>
       <use xlink:href="#DejaVuSerif-30" x="127.246094"/>
      </g>
     </g>
    </g>
    <g id="ytick_8">
     <g id="line2d_27">
      <path d="M 51.035938 41.818667 
L 840.720937 41.818667 
" clip-path="url(#p3591da4f57)" style="fill: none; stroke-dasharray: 2.96,1.28; stroke-dashoffset: 0; stroke: #b0b0b0; stroke-opacity: 0.6; stroke-width: 0.8"/>
     </g>
     <g id="line2d_28">
      <g>
       <use xlink:href="#m4f5f46fbfa" x="51.035938" y="41.818667" style="stroke: #000000; stroke-width: 0.8"/>
      </g>
     </g>
     <g id="text_15">
      <!-- 140 -->
      <g transform="translate(24.948438 45.617885) scale(0.1 -0.1)">
       <use xlink:href="#DejaVuSerif-31"/>
       <use xlink:href="#DejaVuSerif-34" x="63.623047"/>
       <use xlink:href="#DejaVuSerif-30" x="127.246094"/>
      </g>
     </g>
    </g>
    <g id="text_16">
     <!-- Consumo de Energia (unidades) -->
     <g transform="translate(17.837812 380.759531) rotate(-90) scale(0.14 -0.14)">
      <defs>
       <path id="DejaVuSerif-43" d="M 4513 1234 
Q 4306 581 3820 245 
Q 3334 -91 2591 -91 
Q 2134 -91 1743 65 
Q 1353 222 1050 525 
Q 700 875 529 1320 
Q 359 1766 359 2328 
Q 359 3416 987 4083 
Q 1616 4750 2644 4750 
Q 3025 4750 3456 4650 
Q 3888 4550 4384 4347 
L 4384 3272 
L 4031 3272 
Q 3916 3859 3567 4137 
Q 3219 4416 2591 4416 
Q 1844 4416 1459 3886 
Q 1075 3356 1075 2328 
Q 1075 1303 1459 773 
Q 1844 244 2591 244 
Q 3113 244 3450 492 
Q 3788 741 3938 1234 
L 4513 1234 
z
" transform="scale(0.015625)"/>
       <path id="DejaVuSerif-73" d="M 359 184 
L 359 959 
L 691 959 
Q 703 588 923 403 
Q 1144 219 1575 219 
Q 1963 219 2166 364 
Q 2369 509 2369 788 
Q 2369 1006 2220 1140 
Q 2072 1275 1594 1428 
L 1178 1569 
Q 750 1706 558 1912 
Q 366 2119 366 2438 
Q 366 2894 700 3153 
Q 1034 3413 1625 3413 
Q 1888 3413 2178 3344 
Q 2469 3275 2778 3144 
L 2778 2419 
L 2447 2419 
Q 2434 2741 2221 2922 
Q 2009 3103 1644 3103 
Q 1281 3103 1095 2975 
Q 909 2847 909 2591 
Q 909 2381 1050 2254 
Q 1191 2128 1613 1997 
L 2069 1856 
Q 2541 1709 2748 1489 
Q 2956 1269 2956 922 
Q 2956 450 2595 179 
Q 2234 -91 1600 -91 
Q 1278 -91 972 -22 
Q 666 47 359 184 
z
" transform="scale(0.015625)"/>
       <path id="DejaVuSerif-75" d="M 2266 3322 
L 3341 3322 
L 3341 331 
L 3884 331 
L 3884 0 
L 2766 0 
L 2766 588 
Q 2606 256 2353 82 
Q 2100 -91 1766 -91 
Q 1213 -91 952 223 
Q 691 538 691 1209 
L 691 2988 
L 172 2988 
L 172 3322 
L 1269 3322 
L 1269 1388 
Q 1269 781 1417 556 
Q 1566 331 1947 331 
Q 2347 331 2556 625 
Q 2766 919 2766 1478 
L 2766 2988 
L 2266 2988 
L 2266 3322 
z
" transform="scale(0.015625)"/>
       <path id="DejaVuSerif-6d" d="M 3316 2675 
Q 3481 3041 3739 3227 
Q 3997 3413 4341 3413 
Q 4863 3413 5119 3089 
Q 5375 2766 5375 2113 
L 5375 331 
L 5894 331 
L 5894 0 
L 4300 0 
L 4300 331 
L 4800 331 
L 4800 2047 
Q 4800 2556 4650 2772 
Q 4500 2988 4153 2988 
Q 3769 2988 3567 2697 
Q 3366 2406 3366 1850 
L 3366 331 
L 3866 331 
L 3866 0 
L 2291 0 
L 2291 331 
L 2791 331 
L 2791 2069 
Q 2791 2566 2641 2777 
Q 2491 2988 2144 2988 
Q 1759 2988 1557 2697 
Q 1356 2406 1356 1850 
L 1356 331 
L 1856 331 
L 1856 0 
L 263 0 
L 263 331 
L 781 331 
L 781 2994 
L 231 2994 
L 231 3322 
L 1356 3322 
L 1356 2731 
Q 1516 3063 1762 3238 
Q 2009 3413 2322 3413 
Q 2709 3413 2968 3220 
Q 3228 3028 3316 2675 
z
" transform="scale(0.015625)"/>
       <path id="DejaVuSerif-64" d="M 3359 331 
L 3909 331 
L 3909 0 
L 2784 0 
L 2784 519 
Q 2616 206 2355 57 
Q 2094 -91 1709 -91 
Q 1097 -91 708 395 
Q 319 881 319 1663 
Q 319 2444 706 2928 
Q 1094 3413 1709 3413 
Q 2094 3413 2355 3264 
Q 2616 3116 2784 2803 
L 2784 4531 
L 2241 4531 
L 2241 4863 
L 3359 4863 
L 3359 331 
z
M 2784 1497 
L 2784 1825 
Q 2784 2422 2554 2737 
Q 2325 3053 1888 3053 
Q 1444 3053 1217 2703 
Q 991 2353 991 1663 
Q 991 975 1217 622 
Q 1444 269 1888 269 
Q 2325 269 2554 583 
Q 2784 897 2784 1497 
z
" transform="scale(0.015625)"/>
       <path id="DejaVuSerif-28" d="M 2041 -997 
Q 1281 -656 893 83 
Q 506 822 506 1931 
Q 506 3044 893 3783 
Q 1281 4522 2041 4863 
L 2041 4556 
Q 1559 4225 1350 3623 
Q 1141 3022 1141 1931 
Q 1141 844 1350 242 
Q 1559 -359 2041 -691 
L 2041 -997 
z
" transform="scale(0.015625)"/>
       <path id="DejaVuSerif-29" d="M 453 -997 
L 453 -691 
Q 934 -359 1145 242 
Q 1356 844 1356 1931 
Q 1356 3022 1145 3623 
Q 934 4225 453 4556 
L 453 4863 
Q 1216 4522 1603 3783 
Q 1991 3044 1991 1931 
Q 1991 822 1603 83 
Q 1216 -656 453 -997 
z
" transform="scale(0.015625)"/>
      </defs>
      <use xlink:href="#DejaVuSerif-43"/>
      <use xlink:href="#DejaVuSerif-6f" x="76.513672"/>
      <use xlink:href="#DejaVuSerif-6e" x="136.71875"/>
      <use xlink:href="#DejaVuSerif-73" x="201.123047"/>
      <use xlink:href="#DejaVuSerif-75" x="252.441406"/>
      <use xlink:href="#DejaVuSerif-6d" x="316.845703"/>
      <use xlink:href="#DejaVuSerif-6f" x="411.669922"/>
      <use xlink:href="#DejaVuSerif-20" x="471.875"/>
      <use xlink:href="#DejaVuSerif-64" x="503.662109"/>
      <use xlink:href="#DejaVuSerif-65" x="567.675781"/>
      <use xlink:href="#DejaVuSerif-20" x="626.855469"/>
      <use xlink:href="#DejaVuSerif-45" x="658.642578"/>
      <use xlink:href="#DejaVuSerif-6e" x="731.640625"/>
      <use xlink:href="#DejaVuSerif-65" x="796.044922"/>
      <use xlink:href="#DejaVuSerif-72" x="855.224609"/>
      <use xlink:href="#DejaVuSerif-67" x="903.027344"/>
      <use xlink:href="#DejaVuSerif-69" x="967.041016"/>
      <use xlink:href="#DejaVuSerif-61" x="999.023438"/>
      <use xlink:href="#DejaVuSerif-20" x="1058.642578"/>
      <use xlink:href="#DejaVuSerif-28" x="1090.429688"/>
      <use xlink:href="#DejaVuSerif-75" x="1129.443359"/>
      <use xlink:href="#DejaVuSerif-6e" x="1193.847656"/>
      <use xlink:href="#DejaVuSerif-69" x="1258.251953"/>
      <use xlink:href="#DejaVuSerif-64" x="1290.234375"/>
      <use xlink:href="#DejaVuSerif-61" x="1354.248047"/>
      <use xlink:href="#DejaVuSerif-64" x="1413.867188"/>
      <use xlink:href="#DejaVuSerif-65" x="1477.880859"/>
      <use xlink:href="#DejaVuSerif-73" x="1537.060547"/>
      <use xlink:href="#DejaVuSerif-29" x="1588.378906"/>
     </g>
    </g>
   </g>
   <g id="line2d_29">
    <path d="M 51.035938 180.293333 
L 70.877269 188.883127 
L 90.718601 197.259785 
L 110.559932 205.428597 
L 130.401264 213.394719 
L 154.210862 222.693588 
L 178.02046 231.716273 
L 201.830058 240.470978 
L 225.639656 248.965662 
L 249.449254 257.208047 
L 273.258852 265.205627 
L 297.06845 272.965673 
L 320.878048 280.495239 
L 344.687646 287.801172 
L 368.497244 294.890113 
L 392.306842 301.768507 
L 416.11644 308.442608 
L 443.894304 315.978939 
L 471.672169 323.254782 
L 499.450033 330.27914 
L 527.227897 337.060704 
L 555.005762 343.607868 
L 582.783626 349.928734 
L 610.56149 356.031122 
L 638.339355 361.922585 
L 666.117219 367.610413 
L 697.86335 373.870457 
L 729.60948 379.883833 
L 761.355611 385.660259 
L 793.101742 391.209073 
L 824.847872 396.539243 
L 840.720937 399.125043 
L 840.720937 399.125043 
" clip-path="url(#p3591da4f57)" style="fill: none; stroke: #0000ff; stroke-width: 3; stroke-linecap: square"/>
   </g>
   <g id="line2d_30">
    <path d="M 51.035938 180.293333 
L 70.877269 188.883127 
L 90.718601 197.259785 
L 110.559932 205.428597 
L 130.401264 213.394719 
L 154.210862 222.693588 
L 178.02046 231.716273 
L 201.830058 240.470978 
L 205.798324 241.904604 
L 209.766591 257.488492 
L 233.576189 265.477743 
L 257.385787 273.229707 
L 281.195385 280.751431 
L 305.004983 288.049755 
L 328.814581 295.131313 
L 352.624179 302.002543 
L 376.433777 308.669693 
L 404.211641 316.198175 
L 431.989505 323.46644 
L 443.894304 326.503992 
L 447.862571 317.029709 
L 455.799103 319.019249 
L 463.735636 320.847974 
L 471.672169 322.516094 
L 479.608701 324.023817 
L 487.545234 325.371349 
L 495.481767 326.558891 
L 503.418299 327.586645 
L 511.354832 328.454812 
L 519.291365 329.163587 
L 527.227897 329.713165 
L 535.16443 330.103741 
L 543.100963 330.335506 
L 551.037495 330.408648 
L 558.974028 330.323356 
L 566.910561 330.079815 
L 574.847093 329.678209 
L 582.783626 329.11872 
L 590.720159 328.401528 
L 598.656691 327.526811 
L 606.593224 326.494745 
L 614.529757 325.305507 
L 622.466289 323.959268 
L 630.402822 322.4562 
L 638.339355 320.796473 
L 646.275887 318.980254 
L 654.21242 317.00771 
L 662.148953 314.879005 
L 670.085485 312.594302 
L 678.022018 310.153762 
L 689.926817 306.201108 
L 701.831616 301.898713 
L 713.736415 297.247101 
L 725.641214 292.246788 
L 737.546013 286.898282 
L 749.450812 281.202086 
L 761.355611 275.158692 
L 773.26041 268.768586 
L 785.165209 262.032248 
L 797.070008 254.950149 
L 808.974807 247.522753 
L 820.879606 239.750519 
L 832.784405 231.633897 
L 840.720937 226.031709 
L 840.720937 226.031709 
" clip-path="url(#p3591da4f57)" style="fill: none; stroke-dasharray: 11.1,4.8; stroke-dashoffset: 0; stroke: #ffa500; stroke-width: 3"/>
   </g>
   <g id="patch_3">
    <path d="M 51.035938 526.48 
L 51.035938 7.2 
" style="fill: none; stroke: #000000; stroke-width: 0.8; stroke-linejoin: miter; stroke-linecap: square"/>
   </g>
   <g id="patch_4">
    <path d="M 840.720937 526.48 
L 840.720937 7.2 
" style="fill: none; stroke: #000000; stroke-width: 0.8; stroke-linejoin: miter; stroke-linecap: square"/>
   </g>
   <g id="patch_5">
    <path d="M 51.035938 526.48 
L 840.720937 526.48 
" style="fill: none; stroke: #000000; stroke-width: 0.8; stroke-linejoin: miter; stroke-linecap: square"/>
   </g>
   <g id="patch_6">
    <path d="M 51.035938 7.2 
L 840.720937 7.2 
" style="fill: none; stroke: #000000; stroke-width: 0.8; stroke-linejoin: miter; stroke-linecap: square"/>
   </g>
   <g id="patch_7">
    <path d="M 514.197579 292.109964 
Q 481.967364 304.21773 451.830388 315.539139 
" style="fill: none; stroke: #ff0000; stroke-width: 2; stroke-linecap: round"/>
    <path d="M 457.167791 316.097825 
L 451.830388 315.539139 
L 455.479778 311.604429 
" style="fill: none; stroke: #ff0000; stroke-width: 2; stroke-linecap: round"/>
   </g>
   <g id="text_17">
    <g id="patch_8">
     <path d="M 487.346821 290.906668 
L 610.313071 290.906668 
Q 616.313071 290.906668 616.313071 284.906668 
L 616.313071 273.292918 
Q 616.313071 267.292918 610.313071 267.292918 
L 487.346821 267.292918 
Q 481.346821 267.292918 481.346821 273.292918 
L 481.346821 284.906668 
Q 481.346821 290.906668 487.346821 290.906668 
z
" style="fill: #ffffff; stroke: #ff0000; stroke-linejoin: miter"/>
    </g>
    <!-- Benefícios Anulados -->
    <g style="fill: #ff0000" transform="translate(487.346821 282.411043) scale(0.12 -0.12)">
     <defs>
      <path id="DejaVuSerif-42" d="M 1581 331 
L 2516 331 
Q 3078 331 3337 575 
Q 3597 819 3597 1350 
Q 3597 1878 3339 2120 
Q 3081 2363 2516 2363 
L 1581 2363 
L 1581 331 
z
M 1581 2694 
L 2375 2694 
Q 2888 2694 3123 2891 
Q 3359 3088 3359 3513 
Q 3359 3941 3123 4136 
Q 2888 4331 2375 4331 
L 1581 4331 
L 1581 2694 
z
M 353 0 
L 353 331 
L 947 331 
L 947 4331 
L 353 4331 
L 353 4666 
L 2656 4666 
Q 3363 4666 3720 4377 
Q 4078 4088 4078 3513 
Q 4078 3097 3829 2850 
Q 3581 2603 3103 2547 
Q 3697 2472 4005 2167 
Q 4313 1863 4313 1350 
Q 4313 656 3875 328 
Q 3438 0 2509 0 
L 353 0 
z
" transform="scale(0.015625)"/>
      <path id="DejaVuSerif-ed" d="M 1356 331 
L 1900 331 
L 1900 0 
L 231 0 
L 231 331 
L 781 331 
L 781 2988 
L 231 2988 
L 231 3322 
L 1356 3322 
L 1356 331 
z
M 1458 5119 
L 2080 5119 
L 1018 3944 
L 652 3944 
L 1458 5119 
z
" transform="scale(0.015625)"/>
      <path id="DejaVuSerif-41" d="M 1281 1691 
L 2994 1691 
L 2138 3909 
L 1281 1691 
z
M -38 0 
L -38 331 
L 372 331 
L 2034 4666 
L 2559 4666 
L 4225 331 
L 4684 331 
L 4684 0 
L 2988 0 
L 2988 331 
L 3506 331 
L 3116 1356 
L 1153 1356 
L 763 331 
L 1275 331 
L 1275 0 
L -38 0 
z
" transform="scale(0.015625)"/>
     </defs>
     <use xlink:href="#DejaVuSerif-42"/>
     <use xlink:href="#DejaVuSerif-65" x="73.486328"/>
     <use xlink:href="#DejaVuSerif-6e" x="132.666016"/>
     <use xlink:href="#DejaVuSerif-65" x="197.070312"/>
     <use xlink:href="#DejaVuSerif-66" x="256.25"/>
     <use xlink:href="#DejaVuSerif-ed" x="293.261719"/>
     <use xlink:href="#DejaVuSerif-63" x="325.244141"/>
     <use xlink:href="#DejaVuSerif-69" x="381.25"/>
     <use xlink:href="#DejaVuSerif-6f" x="413.232422"/>
     <use xlink:href="#DejaVuSerif-73" x="473.4375"/>
     <use xlink:href="#DejaVuSerif-20" x="524.755859"/>
     <use xlink:href="#DejaVuSerif-41" x="556.542969"/>
     <use xlink:href="#DejaVuSerif-6e" x="628.759766"/>
     <use xlink:href="#DejaVuSerif-75" x="693.164062"/>
     <use xlink:href="#DejaVuSerif-6c" x="757.568359"/>
     <use xlink:href="#DejaVuSerif-61" x="789.550781"/>
     <use xlink:href="#DejaVuSerif-64" x="849.169922"/>
     <use xlink:href="#DejaVuSerif-6f" x="913.183594"/>
     <use xlink:href="#DejaVuSerif-73" x="973.388672"/>
    </g>
   </g>
   <g id="text_18">
    <!-- Economia de -->
    <g style="fill: #008000" transform="translate(248.457188 218.783958) scale(0.12 -0.12)">
     <defs>
      <path id="DejaVuSerif-Bold-45" d="M 300 0 
L 300 378 
L 897 378 
L 897 4288 
L 300 4288 
L 300 4666 
L 4494 4666 
L 4494 3566 
L 4063 3566 
L 4063 4238 
L 2100 4238 
L 2100 2741 
L 3322 2741 
L 3322 3334 
L 3750 3334 
L 3750 1722 
L 3322 1722 
L 3322 2316 
L 2100 2316 
L 2100 428 
L 4122 428 
L 4122 1100 
L 4550 1100 
L 4550 0 
L 300 0 
z
" transform="scale(0.015625)"/>
      <path id="DejaVuSerif-Bold-63" d="M 3609 1038 
Q 3491 469 3123 189 
Q 2756 -91 2125 -91 
Q 1238 -91 750 368 
Q 263 828 263 1663 
Q 263 2488 744 2950 
Q 1225 3413 2081 3413 
Q 2428 3413 2781 3347 
Q 3134 3281 3500 3150 
L 3500 2228 
L 3150 2228 
Q 3100 2650 2903 2854 
Q 2706 3059 2350 3059 
Q 1888 3059 1692 2746 
Q 1497 2434 1497 1663 
Q 1497 909 1687 586 
Q 1878 263 2309 263 
Q 2644 263 2845 463 
Q 3047 663 3091 1038 
L 3609 1038 
z
" transform="scale(0.015625)"/>
      <path id="DejaVuSerif-Bold-6f" d="M 2138 263 
Q 2488 263 2630 563 
Q 2772 863 2772 1663 
Q 2772 2463 2631 2761 
Q 2491 3059 2138 3059 
Q 1784 3059 1640 2757 
Q 1497 2456 1497 1663 
Q 1497 869 1640 566 
Q 1784 263 2138 263 
z
M 2138 -91 
Q 1259 -91 761 376 
Q 263 844 263 1663 
Q 263 2484 761 2948 
Q 1259 3413 2138 3413 
Q 3019 3413 3516 2948 
Q 4013 2484 4013 1663 
Q 4013 844 3514 376 
Q 3016 -91 2138 -91 
z
" transform="scale(0.015625)"/>
      <path id="DejaVuSerif-Bold-6e" d="M 219 0 
L 219 378 
L 691 378 
L 691 2944 
L 219 2944 
L 219 3322 
L 1797 3322 
L 1797 2853 
Q 1997 3150 2253 3281 
Q 2509 3413 2900 3413 
Q 3459 3413 3745 3083 
Q 4031 2753 4031 2113 
L 4031 378 
L 4506 378 
L 4506 0 
L 2522 0 
L 2522 378 
L 2925 378 
L 2925 2144 
Q 2925 2566 2817 2730 
Q 2709 2894 2444 2894 
Q 2109 2894 1953 2648 
Q 1797 2403 1797 1869 
L 1797 378 
L 2203 378 
L 2203 0 
L 219 0 
z
" transform="scale(0.015625)"/>
      <path id="DejaVuSerif-Bold-6d" d="M 3884 2778 
Q 4116 3109 4384 3261 
Q 4653 3413 5013 3413 
Q 5584 3413 5867 3089 
Q 6150 2766 6150 2113 
L 6150 378 
L 6625 378 
L 6625 0 
L 4647 0 
L 4647 378 
L 5044 378 
L 5044 1947 
Q 5044 2569 4948 2731 
Q 4853 2894 4594 2894 
Q 4300 2894 4137 2667 
Q 3975 2441 3975 2022 
L 3975 378 
L 4372 378 
L 4372 0 
L 2472 0 
L 2472 378 
L 2869 378 
L 2869 1947 
Q 2869 2569 2772 2731 
Q 2675 2894 2419 2894 
Q 2122 2894 1959 2667 
Q 1797 2441 1797 2022 
L 1797 378 
L 2194 378 
L 2194 0 
L 219 0 
L 219 378 
L 691 378 
L 691 2944 
L 219 2944 
L 219 3322 
L 1797 3322 
L 1797 2853 
Q 1991 3144 2241 3278 
Q 2491 3413 2834 3413 
Q 3241 3413 3494 3258 
Q 3747 3103 3884 2778 
z
" transform="scale(0.015625)"/>
      <path id="DejaVuSerif-Bold-69" d="M 588 4263 
Q 588 4516 763 4689 
Q 938 4863 1191 4863 
Q 1438 4863 1611 4689 
Q 1784 4516 1784 4263 
Q 1784 4016 1611 3842 
Q 1438 3669 1191 3669 
Q 938 3669 763 3841 
Q 588 4013 588 4263 
z
M 1797 378 
L 2272 378 
L 2272 0 
L 219 0 
L 219 378 
L 691 378 
L 691 2944 
L 219 2944 
L 219 3322 
L 1797 3322 
L 1797 378 
z
" transform="scale(0.015625)"/>
      <path id="DejaVuSerif-Bold-61" d="M 3525 2041 
L 3525 378 
L 4000 378 
L 4000 0 
L 2419 0 
L 2419 422 
Q 2200 159 1931 34 
Q 1663 -91 1319 -91 
Q 809 -91 536 182 
Q 263 456 263 966 
Q 263 1525 655 1803 
Q 1047 2081 1838 2081 
L 2419 2081 
L 2419 2278 
Q 2419 2681 2228 2873 
Q 2038 3066 1638 3066 
Q 1306 3066 1126 2930 
Q 947 2794 872 2484 
L 519 2484 
L 519 3200 
Q 816 3306 1134 3359 
Q 1453 3413 1806 3413 
Q 2697 3413 3111 3081 
Q 3525 2750 3525 2041 
z
M 2419 1044 
L 2419 1709 
L 2003 1709 
Q 1694 1709 1528 1540 
Q 1363 1372 1363 1056 
Q 1363 741 1483 584 
Q 1603 428 1850 428 
Q 2106 428 2262 597 
Q 2419 766 2419 1044 
z
" transform="scale(0.015625)"/>
      <path id="DejaVuSerif-Bold-20" transform="scale(0.015625)"/>
      <path id="DejaVuSerif-Bold-64" d="M 2747 1497 
L 2747 1825 
Q 2747 2406 2597 2665 
Q 2447 2925 2119 2925 
Q 1775 2925 1636 2651 
Q 1497 2378 1497 1663 
Q 1497 947 1637 672 
Q 1778 397 2119 397 
Q 2447 397 2597 656 
Q 2747 916 2747 1497 
z
M 3853 378 
L 4325 378 
L 4325 0 
L 2747 0 
L 2747 422 
Q 2606 163 2367 36 
Q 2128 -91 1778 -91 
Q 1072 -91 667 378 
Q 263 847 263 1663 
Q 263 2481 667 2947 
Q 1072 3413 1778 3413 
Q 2128 3413 2367 3286 
Q 2606 3159 2747 2900 
L 2747 4488 
L 2272 4488 
L 2272 4863 
L 3853 4863 
L 3853 378 
z
" transform="scale(0.015625)"/>
      <path id="DejaVuSerif-Bold-65" d="M 2566 1875 
Q 2566 2531 2444 2795 
Q 2322 3059 2028 3059 
Q 1744 3059 1620 2800 
Q 1497 2541 1497 1931 
L 1497 1875 
L 2566 1875 
z
M 3781 1503 
L 1497 1503 
L 1497 1478 
Q 1497 834 1690 548 
Q 1884 263 2316 263 
Q 2675 263 2897 453 
Q 3119 644 3181 1006 
L 3700 1006 
Q 3566 441 3166 175 
Q 2766 -91 2047 -91 
Q 1184 -91 723 364 
Q 263 819 263 1663 
Q 263 2488 734 2950 
Q 1206 3413 2047 3413 
Q 2872 3413 3312 2927 
Q 3753 2441 3781 1503 
z
" transform="scale(0.015625)"/>
     </defs>
     <use xlink:href="#DejaVuSerif-Bold-45"/>
     <use xlink:href="#DejaVuSerif-Bold-63" x="76.220703"/>
     <use xlink:href="#DejaVuSerif-Bold-6f" x="137.109375"/>
     <use xlink:href="#DejaVuSerif-Bold-6e" x="203.808594"/>
     <use xlink:href="#DejaVuSerif-Bold-6f" x="276.513672"/>
     <use xlink:href="#DejaVuSerif-Bold-6d" x="343.212891"/>
     <use xlink:href="#DejaVuSerif-Bold-69" x="449.023438"/>
     <use xlink:href="#DejaVuSerif-Bold-61" x="487.011719"/>
     <use xlink:href="#DejaVuSerif-Bold-20" x="551.806641"/>
     <use xlink:href="#DejaVuSerif-Bold-64" x="586.621094"/>
     <use xlink:href="#DejaVuSerif-Bold-65" x="656.542969"/>
    </g>
    <!-- Energia Adicional -->
    <g style="fill: #008000" transform="translate(248.457188 232.221333) scale(0.12 -0.12)">
     <defs>
      <path id="DejaVuSerif-Bold-72" d="M 3438 3359 
L 3438 2369 
L 3084 2369 
Q 3066 2634 2941 2764 
Q 2816 2894 2578 2894 
Q 2216 2894 2006 2575 
Q 1797 2256 1797 1691 
L 1797 378 
L 2400 378 
L 2400 0 
L 219 0 
L 219 378 
L 691 378 
L 691 2944 
L 184 2944 
L 184 3322 
L 1797 3322 
L 1797 2731 
Q 1959 3078 2226 3245 
Q 2494 3413 2881 3413 
Q 2978 3413 3117 3398 
Q 3256 3384 3438 3359 
z
" transform="scale(0.015625)"/>
      <path id="DejaVuSerif-Bold-67" d="M 3853 2944 
L 3853 44 
Q 3853 -656 3354 -1039 
Q 2856 -1422 1947 -1422 
Q 1616 -1422 1275 -1370 
Q 934 -1319 575 -1216 
L 575 -422 
L 928 -422 
Q 975 -750 1192 -909 
Q 1409 -1069 1813 -1069 
Q 2325 -1069 2536 -823 
Q 2747 -578 2747 44 
L 2747 422 
Q 2606 163 2367 36 
Q 2128 -91 1778 -91 
Q 1072 -91 667 378 
Q 263 847 263 1663 
Q 263 2481 667 2947 
Q 1072 3413 1778 3413 
Q 2128 3413 2367 3286 
Q 2606 3159 2747 2900 
L 2747 3322 
L 4325 3322 
L 4325 2944 
L 3853 2944 
z
M 2747 1825 
Q 2747 2406 2597 2665 
Q 2447 2925 2119 2925 
Q 1775 2925 1636 2651 
Q 1497 2378 1497 1663 
Q 1497 947 1637 672 
Q 1778 397 2119 397 
Q 2447 397 2597 656 
Q 2747 916 2747 1497 
L 2747 1825 
z
" transform="scale(0.015625)"/>
      <path id="DejaVuSerif-Bold-41" d="M -50 0 
L -50 378 
L 331 378 
L 2088 4666 
L 2834 4666 
L 4594 378 
L 5038 378 
L 5038 0 
L 2853 0 
L 2853 378 
L 3309 378 
L 2925 1331 
L 1172 1331 
L 781 378 
L 1338 378 
L 1338 0 
L -50 0 
z
M 1325 1709 
L 2772 1709 
L 2053 3494 
L 1325 1709 
z
" transform="scale(0.015625)"/>
      <path id="DejaVuSerif-Bold-6c" d="M 1797 378 
L 2272 378 
L 2272 0 
L 219 0 
L 219 378 
L 691 378 
L 691 4488 
L 219 4488 
L 219 4863 
L 1797 4863 
L 1797 378 
z
" transform="scale(0.015625)"/>
     </defs>
     <use xlink:href="#DejaVuSerif-Bold-45"/>
     <use xlink:href="#DejaVuSerif-Bold-6e" x="76.220703"/>
     <use xlink:href="#DejaVuSerif-Bold-65" x="148.925781"/>
     <use xlink:href="#DejaVuSerif-Bold-72" x="212.548828"/>
     <use xlink:href="#DejaVuSerif-Bold-67" x="265.234375"/>
     <use xlink:href="#DejaVuSerif-Bold-69" x="335.15625"/>
     <use xlink:href="#DejaVuSerif-Bold-61" x="373.144531"/>
     <use xlink:href="#DejaVuSerif-Bold-20" x="437.939453"/>
     <use xlink:href="#DejaVuSerif-Bold-41" x="472.753906"/>
     <use xlink:href="#DejaVuSerif-Bold-64" x="550.341797"/>
     <use xlink:href="#DejaVuSerif-Bold-69" x="620.263672"/>
     <use xlink:href="#DejaVuSerif-Bold-63" x="658.251953"/>
     <use xlink:href="#DejaVuSerif-Bold-69" x="719.140625"/>
     <use xlink:href="#DejaVuSerif-Bold-6f" x="757.128906"/>
     <use xlink:href="#DejaVuSerif-Bold-6e" x="823.828125"/>
     <use xlink:href="#DejaVuSerif-Bold-61" x="896.533203"/>
     <use xlink:href="#DejaVuSerif-Bold-6c" x="961.328125"/>
    </g>
   </g>
   <g id="text_19">
    <!-- Consumo Esperado -->
    <g style="fill: #0000ff" transform="translate(603.815438 409.186625) scale(0.12 -0.12)">
     <defs>
      <path id="DejaVuSerif-Bold-43" d="M 4769 1331 
Q 4584 609 4106 259 
Q 3628 -91 2822 -91 
Q 1641 -91 955 561 
Q 269 1213 269 2328 
Q 269 3447 955 4098 
Q 1641 4750 2822 4750 
Q 3238 4750 3688 4650 
Q 4138 4550 4641 4347 
L 4641 3200 
L 4244 3200 
Q 4122 3788 3800 4080 
Q 3478 4372 2950 4372 
Q 2269 4372 1937 3870 
Q 1606 3369 1606 2328 
Q 1606 1288 1937 788 
Q 2269 288 2956 288 
Q 3422 288 3717 547 
Q 4013 806 4147 1331 
L 4769 1331 
z
" transform="scale(0.015625)"/>
      <path id="DejaVuSerif-Bold-73" d="M 300 97 
L 300 1025 
L 653 1025 
Q 697 653 931 458 
Q 1166 263 1569 263 
Q 1906 263 2086 380 
Q 2266 497 2266 716 
Q 2266 916 2152 1025 
Q 2038 1134 1709 1216 
L 1253 1331 
Q 738 1459 506 1698 
Q 275 1938 275 2344 
Q 275 2884 650 3148 
Q 1025 3413 1806 3413 
Q 2100 3413 2433 3364 
Q 2766 3316 3169 3213 
L 3169 2375 
L 2816 2375 
Q 2788 2716 2573 2887 
Q 2359 3059 1959 3059 
Q 1622 3059 1448 2951 
Q 1275 2844 1275 2638 
Q 1275 2469 1375 2372 
Q 1475 2275 1734 2209 
L 2188 2094 
Q 2841 1928 3091 1684 
Q 3341 1441 3341 1006 
Q 3341 444 2939 176 
Q 2538 -91 1691 -91 
Q 1381 -91 1034 -44 
Q 688 3 300 97 
z
" transform="scale(0.015625)"/>
      <path id="DejaVuSerif-Bold-75" d="M 3963 3322 
L 3963 378 
L 4434 378 
L 4434 0 
L 2853 0 
L 2853 469 
Q 2656 172 2400 40 
Q 2144 -91 1753 -91 
Q 1194 -91 908 239 
Q 622 569 622 1209 
L 622 2944 
L 147 2944 
L 147 3322 
L 1728 3322 
L 1728 1381 
Q 1728 763 1831 595 
Q 1934 428 2209 428 
Q 2544 428 2698 675 
Q 2853 922 2853 1459 
L 2853 2944 
L 2450 2944 
L 2450 3322 
L 3963 3322 
z
" transform="scale(0.015625)"/>
      <path id="DejaVuSerif-Bold-70" d="M 1728 1825 
L 1728 1497 
Q 1728 916 1876 656 
Q 2025 397 2356 397 
Q 2697 397 2836 672 
Q 2975 947 2975 1663 
Q 2975 2378 2836 2651 
Q 2697 2925 2356 2925 
Q 2025 2925 1876 2665 
Q 1728 2406 1728 1825 
z
M 622 2944 
L 147 2944 
L 147 3322 
L 1728 3322 
L 1728 2900 
Q 1869 3159 2106 3286 
Q 2344 3413 2694 3413 
Q 3403 3413 3811 2945 
Q 4219 2478 4219 1663 
Q 4219 847 3811 378 
Q 3403 -91 2694 -91 
Q 2344 -91 2106 36 
Q 1869 163 1728 422 
L 1728 -953 
L 2241 -953 
L 2241 -1331 
L 147 -1331 
L 147 -953 
L 622 -953 
L 622 2944 
z
" transform="scale(0.015625)"/>
     </defs>
     <use xlink:href="#DejaVuSerif-Bold-43"/>
     <use xlink:href="#DejaVuSerif-Bold-6f" x="79.589844"/>
     <use xlink:href="#DejaVuSerif-Bold-6e" x="146.289062"/>
     <use xlink:href="#DejaVuSerif-Bold-73" x="218.994141"/>
     <use xlink:href="#DejaVuSerif-Bold-75" x="275.292969"/>
     <use xlink:href="#DejaVuSerif-Bold-6d" x="347.998047"/>
     <use xlink:href="#DejaVuSerif-Bold-6f" x="453.808594"/>
     <use xlink:href="#DejaVuSerif-Bold-20" x="520.507812"/>
     <use xlink:href="#DejaVuSerif-Bold-45" x="555.322266"/>
     <use xlink:href="#DejaVuSerif-Bold-73" x="631.542969"/>
     <use xlink:href="#DejaVuSerif-Bold-70" x="687.841797"/>
     <use xlink:href="#DejaVuSerif-Bold-65" x="757.763672"/>
     <use xlink:href="#DejaVuSerif-Bold-72" x="821.386719"/>
     <use xlink:href="#DejaVuSerif-Bold-61" x="874.072266"/>
     <use xlink:href="#DejaVuSerif-Bold-64" x="938.867188"/>
     <use xlink:href="#DejaVuSerif-Bold-6f" x="1008.789062"/>
    </g>
    <!-- sem Efeito Rebote -->
    <g style="fill: #0000ff" transform="translate(603.815438 422.624) scale(0.12 -0.12)">
     <defs>
      <path id="DejaVuSerif-Bold-66" d="M 3097 4031 
L 2747 4031 
Q 2722 4275 2605 4394 
Q 2488 4513 2272 4513 
Q 2022 4513 1909 4333 
Q 1797 4153 1797 3750 
L 1797 3322 
L 2631 3322 
L 2631 2944 
L 1797 2944 
L 1797 378 
L 2438 378 
L 2438 0 
L 219 0 
L 219 378 
L 691 378 
L 691 2944 
L 197 2944 
L 197 3322 
L 691 3322 
L 691 3738 
Q 691 4291 1044 4577 
Q 1397 4863 2081 4863 
Q 2347 4863 2600 4833 
Q 2853 4803 3097 4744 
L 3097 4031 
z
" transform="scale(0.015625)"/>
      <path id="DejaVuSerif-Bold-74" d="M 634 2944 
L 153 2944 
L 153 3322 
L 634 3322 
L 634 4353 
L 1741 4353 
L 1741 3322 
L 2663 3322 
L 2663 2944 
L 1741 2944 
L 1741 909 
Q 1741 475 1809 369 
Q 1878 263 2059 263 
Q 2259 263 2356 397 
Q 2453 531 2459 813 
L 2925 813 
Q 2897 313 2651 111 
Q 2406 -91 1806 -91 
Q 1122 -91 878 123 
Q 634 338 634 909 
L 634 2944 
z
" transform="scale(0.015625)"/>
      <path id="DejaVuSerif-Bold-52" d="M 3397 2278 
Q 3675 2238 3865 2094 
Q 4056 1950 4197 1678 
L 4878 378 
L 5356 378 
L 5356 0 
L 3822 0 
L 3078 1409 
Q 2863 1847 2711 1967 
Q 2559 2088 2291 2088 
L 2100 2088 
L 2100 378 
L 2700 378 
L 2700 0 
L 300 0 
L 300 378 
L 897 378 
L 897 4288 
L 300 4288 
L 300 4666 
L 2963 4666 
Q 3775 4666 4217 4339 
Q 4659 4013 4659 3413 
Q 4659 2925 4345 2642 
Q 4031 2359 3397 2278 
z
M 2100 2463 
L 2509 2463 
Q 2947 2463 3183 2700 
Q 3419 2938 3419 3378 
Q 3419 3819 3183 4053 
Q 2947 4288 2509 4288 
L 2100 4288 
L 2100 2463 
z
" transform="scale(0.015625)"/>
      <path id="DejaVuSerif-Bold-62" d="M 622 378 
L 622 4488 
L 147 4488 
L 147 4863 
L 1728 4863 
L 1728 2900 
Q 1869 3159 2106 3286 
Q 2344 3413 2694 3413 
Q 3403 3413 3811 2945 
Q 4219 2478 4219 1663 
Q 4219 847 3811 378 
Q 3403 -91 2694 -91 
Q 2344 -91 2106 36 
Q 1869 163 1728 422 
L 1728 0 
L 147 0 
L 147 378 
L 622 378 
z
M 1728 1497 
Q 1728 916 1876 656 
Q 2025 397 2356 397 
Q 2697 397 2836 672 
Q 2975 947 2975 1663 
Q 2975 2378 2836 2651 
Q 2697 2925 2356 2925 
Q 2025 2925 1876 2665 
Q 1728 2406 1728 1825 
L 1728 1497 
z
" transform="scale(0.015625)"/>
     </defs>
     <use xlink:href="#DejaVuSerif-Bold-73"/>
     <use xlink:href="#DejaVuSerif-Bold-65" x="56.298828"/>
     <use xlink:href="#DejaVuSerif-Bold-6d" x="119.921875"/>
     <use xlink:href="#DejaVuSerif-Bold-20" x="225.732422"/>
     <use xlink:href="#DejaVuSerif-Bold-45" x="260.546875"/>
     <use xlink:href="#DejaVuSerif-Bold-66" x="336.767578"/>
     <use xlink:href="#DejaVuSerif-Bold-65" x="379.785156"/>
     <use xlink:href="#DejaVuSerif-Bold-69" x="443.408203"/>
     <use xlink:href="#DejaVuSerif-Bold-74" x="481.396484"/>
     <use xlink:href="#DejaVuSerif-Bold-6f" x="527.587891"/>
     <use xlink:href="#DejaVuSerif-Bold-20" x="594.287109"/>
     <use xlink:href="#DejaVuSerif-Bold-52" x="629.101562"/>
     <use xlink:href="#DejaVuSerif-Bold-65" x="712.207031"/>
     <use xlink:href="#DejaVuSerif-Bold-62" x="775.830078"/>
     <use xlink:href="#DejaVuSerif-Bold-6f" x="845.751953"/>
     <use xlink:href="#DejaVuSerif-Bold-74" x="912.451172"/>
     <use xlink:href="#DejaVuSerif-Bold-65" x="958.642578"/>
    </g>
   </g>
   <g id="text_20">
    <!-- Consumo Real -->
    <g style="fill: #ffa500" transform="translate(682.783937 236.093292) scale(0.12 -0.12)">
     <use xlink:href="#DejaVuSerif-Bold-43"/>
     <use xlink:href="#DejaVuSerif-Bold-6f" x="79.589844"/>
     <use xlink:href="#DejaVuSerif-Bold-6e" x="146.289062"/>
     <use xlink:href="#DejaVuSerif-Bold-73" x="218.994141"/>
     <use xlink:href="#DejaVuSerif-Bold-75" x="275.292969"/>
     <use xlink:href="#DejaVuSerif-Bold-6d" x="347.998047"/>
     <use xlink:href="#DejaVuSerif-Bold-6f" x="453.808594"/>
     <use xlink:href="#DejaVuSerif-Bold-20" x="520.507812"/>
     <use xlink:href="#DejaVuSerif-Bold-52" x="555.322266"/>
     <use xlink:href="#DejaVuSerif-Bold-65" x="638.427734"/>
     <use xlink:href="#DejaVuSerif-Bold-61" x="702.050781"/>
     <use xlink:href="#DejaVuSerif-Bold-6c" x="766.845703"/>
    </g>
    <!-- com Efeito Rebote -->
    <g style="fill: #ffa500" transform="translate(682.783937 249.530667) scale(0.12 -0.12)">
     <use xlink:href="#DejaVuSerif-Bold-63"/>
     <use xlink:href="#DejaVuSerif-Bold-6f" x="60.888672"/>
     <use xlink:href="#DejaVuSerif-Bold-6d" x="127.587891"/>
     <use xlink:href="#DejaVuSerif-Bold-20" x="233.398438"/>
     <use xlink:href="#DejaVuSerif-Bold-45" x="268.212891"/>
     <use xlink:href="#DejaVuSerif-Bold-66" x="344.433594"/>
     <use xlink:href="#DejaVuSerif-Bold-65" x="387.451172"/>
     <use xlink:href="#DejaVuSerif-Bold-69" x="451.074219"/>
     <use xlink:href="#DejaVuSerif-Bold-74" x="489.0625"/>
     <use xlink:href="#DejaVuSerif-Bold-6f" x="535.253906"/>
     <use xlink:href="#DejaVuSerif-Bold-20" x="601.953125"/>
     <use xlink:href="#DejaVuSerif-Bold-52" x="636.767578"/>
     <use xlink:href="#DejaVuSerif-Bold-65" x="719.873047"/>
     <use xlink:href="#DejaVuSerif-Bold-62" x="783.496094"/>
     <use xlink:href="#DejaVuSerif-Bold-6f" x="853.417969"/>
     <use xlink:href="#DejaVuSerif-Bold-74" x="920.117188"/>
     <use xlink:href="#DejaVuSerif-Bold-65" x="966.308594"/>
    </g>
   </g>
   <g id="PathCollection_1">
    <defs>
     <path id="m93d8ded613" d="M 0 5 
C 1.326016 5 2.597899 4.473168 3.535534 3.535534 
C 4.473168 2.597899 5 1.326016 5 0 
C 5 -1.326016 4.473168 -2.597899 3.535534 -3.535534 
C 2.597899 -4.473168 1.326016 -5 0 -5 
C -1.326016 -5 -2.597899 -4.473168 -3.535534 -3.535534 
C -4.473168 -2.597899 -5 -1.326016 -5 0 
C -5 1.326016 -4.473168 2.597899 -3.535534 3.535534 
C -2.597899 4.473168 -1.326016 5 0 5 
z
" style="stroke: #000000"/>
    </defs>
    <g clip-path="url(#p3591da4f57)">
     <use xlink:href="#m93d8ded613" x="447.862571" y="317.029709" style="fill: #ff0000; stroke: #000000"/>
    </g>
   </g>
   <g id="legend_1">
    <g id="patch_9">
     <path d="M 560.744062 87.425625 
L 832.320937 87.425625 
Q 834.720937 87.425625 834.720937 85.025625 
L 834.720937 15.6 
Q 834.720937 13.2 832.320937 13.2 
L 560.744062 13.2 
Q 558.344062 13.2 558.344062 15.6 
L 558.344062 85.025625 
Q 558.344062 87.425625 560.744062 87.425625 
z
" style="fill: #ffffff; opacity: 0.8; stroke: #cccccc; stroke-linejoin: miter"/>
    </g>
    <g id="line2d_31">
     <path d="M 563.144062 22.918125 
L 575.144062 22.918125 
L 587.144062 22.918125 
" style="fill: none; stroke: #0000ff; stroke-width: 3; stroke-linecap: square"/>
    </g>
    <g id="text_21">
     <!-- Consumo Esperado sem Efeito Rebote -->
     <g transform="translate(596.744062 27.118125) scale(0.12 -0.12)">
      <defs>
       <path id="DejaVuSerif-70" d="M 1313 1825 
L 1313 1497 
Q 1313 897 1542 583 
Q 1772 269 2209 269 
Q 2650 269 2876 622 
Q 3103 975 3103 1663 
Q 3103 2353 2876 2703 
Q 2650 3053 2209 3053 
Q 1772 3053 1542 2737 
Q 1313 2422 1313 1825 
z
M 738 2988 
L 184 2988 
L 184 3322 
L 1313 3322 
L 1313 2803 
Q 1481 3116 1742 3264 
Q 2003 3413 2388 3413 
Q 3000 3413 3387 2928 
Q 3775 2444 3775 1663 
Q 3775 881 3387 395 
Q 3000 -91 2388 -91 
Q 2003 -91 1742 57 
Q 1481 206 1313 519 
L 1313 -997 
L 1856 -997 
L 1856 -1331 
L 184 -1331 
L 184 -997 
L 738 -997 
L 738 2988 
z
" transform="scale(0.015625)"/>
       <path id="DejaVuSerif-52" d="M 3066 2316 
Q 3284 2256 3442 2114 
Q 3600 1972 3725 1716 
L 4403 331 
L 4972 331 
L 4972 0 
L 3872 0 
L 3144 1484 
Q 2934 1916 2759 2042 
Q 2584 2169 2278 2169 
L 1581 2169 
L 1581 331 
L 2241 331 
L 2241 0 
L 353 0 
L 353 331 
L 947 331 
L 947 4331 
L 353 4331 
L 353 4666 
L 2719 4666 
Q 3400 4666 3770 4341 
Q 4141 4016 4141 3419 
Q 4141 2938 3870 2661 
Q 3600 2384 3066 2316 
z
M 1581 2503 
L 2503 2503 
Q 2975 2503 3200 2726 
Q 3425 2950 3425 3419 
Q 3425 3888 3200 4109 
Q 2975 4331 2503 4331 
L 1581 4331 
L 1581 2503 
z
" transform="scale(0.015625)"/>
       <path id="DejaVuSerif-62" d="M 738 331 
L 738 4531 
L 184 4531 
L 184 4863 
L 1313 4863 
L 1313 2803 
Q 1481 3116 1742 3264 
Q 2003 3413 2388 3413 
Q 3000 3413 3387 2928 
Q 3775 2444 3775 1663 
Q 3775 881 3387 395 
Q 3000 -91 2388 -91 
Q 2003 -91 1742 57 
Q 1481 206 1313 519 
L 1313 0 
L 184 0 
L 184 331 
L 738 331 
z
M 1313 1497 
Q 1313 897 1542 583 
Q 1772 269 2209 269 
Q 2650 269 2876 622 
Q 3103 975 3103 1663 
Q 3103 2353 2876 2703 
Q 2650 3053 2209 3053 
Q 1772 3053 1542 2737 
Q 1313 2422 1313 1825 
L 1313 1497 
z
" transform="scale(0.015625)"/>
      </defs>
      <use xlink:href="#DejaVuSerif-43"/>
      <use xlink:href="#DejaVuSerif-6f" x="76.513672"/>
      <use xlink:href="#DejaVuSerif-6e" x="136.71875"/>
      <use xlink:href="#DejaVuSerif-73" x="201.123047"/>
      <use xlink:href="#DejaVuSerif-75" x="252.441406"/>
      <use xlink:href="#DejaVuSerif-6d" x="316.845703"/>
      <use xlink:href="#DejaVuSerif-6f" x="411.669922"/>
      <use xlink:href="#DejaVuSerif-20" x="471.875"/>
      <use xlink:href="#DejaVuSerif-45" x="503.662109"/>
      <use xlink:href="#DejaVuSerif-73" x="576.660156"/>
      <use xlink:href="#DejaVuSerif-70" x="627.978516"/>
      <use xlink:href="#DejaVuSerif-65" x="691.992188"/>
      <use xlink:href="#DejaVuSerif-72" x="751.171875"/>
      <use xlink:href="#DejaVuSerif-61" x="798.974609"/>
      <use xlink:href="#DejaVuSerif-64" x="858.59375"/>
      <use xlink:href="#DejaVuSerif-6f" x="922.607422"/>
      <use xlink:href="#DejaVuSerif-20" x="982.8125"/>
      <use xlink:href="#DejaVuSerif-73" x="1014.599609"/>
      <use xlink:href="#DejaVuSerif-65" x="1065.917969"/>
      <use xlink:href="#DejaVuSerif-6d" x="1125.097656"/>
      <use xlink:href="#DejaVuSerif-20" x="1219.921875"/>
      <use xlink:href="#DejaVuSerif-45" x="1251.708984"/>
      <use xlink:href="#DejaVuSerif-66" x="1324.707031"/>
      <use xlink:href="#DejaVuSerif-65" x="1361.71875"/>
      <use xlink:href="#DejaVuSerif-69" x="1420.898438"/>
      <use xlink:href="#DejaVuSerif-74" x="1452.880859"/>
      <use xlink:href="#DejaVuSerif-6f" x="1493.066406"/>
      <use xlink:href="#DejaVuSerif-20" x="1553.271484"/>
      <use xlink:href="#DejaVuSerif-52" x="1585.058594"/>
      <use xlink:href="#DejaVuSerif-65" x="1660.351562"/>
      <use xlink:href="#DejaVuSerif-62" x="1719.53125"/>
      <use xlink:href="#DejaVuSerif-6f" x="1783.544922"/>
      <use xlink:href="#DejaVuSerif-74" x="1843.75"/>
      <use xlink:href="#DejaVuSerif-65" x="1883.935547"/>
     </g>
    </g>
    <g id="line2d_32">
     <path d="M 563.144062 40.531875 
L 575.144062 40.531875 
L 587.144062 40.531875 
" style="fill: none; stroke-dasharray: 11.1,4.8; stroke-dashoffset: 0; stroke: #ffa500; stroke-width: 3"/>
    </g>
    <g id="text_22">
     <!-- Consumo Real com Efeito Rebote -->
     <g transform="translate(596.744062 44.731875) scale(0.12 -0.12)">
      <use xlink:href="#DejaVuSerif-43"/>
      <use xlink:href="#DejaVuSerif-6f" x="76.513672"/>
      <use xlink:href="#DejaVuSerif-6e" x="136.71875"/>
      <use xlink:href="#DejaVuSerif-73" x="201.123047"/>
      <use xlink:href="#DejaVuSerif-75" x="252.441406"/>
      <use xlink:href="#DejaVuSerif-6d" x="316.845703"/>
      <use xlink:href="#DejaVuSerif-6f" x="411.669922"/>
      <use xlink:href="#DejaVuSerif-20" x="471.875"/>
      <use xlink:href="#DejaVuSerif-52" x="503.662109"/>
      <use xlink:href="#DejaVuSerif-65" x="578.955078"/>
      <use xlink:href="#DejaVuSerif-61" x="638.134766"/>
      <use xlink:href="#DejaVuSerif-6c" x="697.753906"/>
      <use xlink:href="#DejaVuSerif-20" x="729.736328"/>
      <use xlink:href="#DejaVuSerif-63" x="761.523438"/>
      <use xlink:href="#DejaVuSerif-6f" x="817.529297"/>
      <use xlink:href="#DejaVuSerif-6d" x="877.734375"/>
      <use xlink:href="#DejaVuSerif-20" x="972.558594"/>
      <use xlink:href="#DejaVuSerif-45" x="1004.345703"/>
      <use xlink:href="#DejaVuSerif-66" x="1077.34375"/>
      <use xlink:href="#DejaVuSerif-65" x="1114.355469"/>
      <use xlink:href="#DejaVuSerif-69" x="1173.535156"/>
      <use xlink:href="#DejaVuSerif-74" x="1205.517578"/>
      <use xlink:href="#DejaVuSerif-6f" x="1245.703125"/>
      <use xlink:href="#DejaVuSerif-20" x="1305.908203"/>
      <use xlink:href="#DejaVuSerif-52" x="1337.695312"/>
      <use xlink:href="#DejaVuSerif-65" x="1412.988281"/>
      <use xlink:href="#DejaVuSerif-62" x="1472.167969"/>
      <use xlink:href="#DejaVuSerif-6f" x="1536.181641"/>
      <use xlink:href="#DejaVuSerif-74" x="1596.386719"/>
      <use xlink:href="#DejaVuSerif-65" x="1636.572266"/>
     </g>
    </g>
    <g id="patch_10">
     <path d="M 563.144062 62.345625 
L 587.144062 62.345625 
L 587.144062 53.945625 
L 563.144062 53.945625 
z
" style="fill: url(#hc119be2cf2); fill-opacity: 0.6; stroke: #008000; stroke-opacity: 0.6; stroke-width: 2; stroke-linejoin: miter"/>
    </g>
    <g id="text_23">
     <!-- Economia de Energia Adicional -->
     <g transform="translate(596.744062 62.345625) scale(0.12 -0.12)">
      <use xlink:href="#DejaVuSerif-45"/>
      <use xlink:href="#DejaVuSerif-63" x="72.998047"/>
      <use xlink:href="#DejaVuSerif-6f" x="129.003906"/>
      <use xlink:href="#DejaVuSerif-6e" x="189.208984"/>
      <use xlink:href="#DejaVuSerif-6f" x="253.613281"/>
      <use xlink:href="#DejaVuSerif-6d" x="313.818359"/>
      <use xlink:href="#DejaVuSerif-69" x="408.642578"/>
      <use xlink:href="#DejaVuSerif-61" x="440.625"/>
      <use xlink:href="#DejaVuSerif-20" x="500.244141"/>
      <use xlink:href="#DejaVuSerif-64" x="532.03125"/>
      <use xlink:href="#DejaVuSerif-65" x="596.044922"/>
      <use xlink:href="#DejaVuSerif-20" x="655.224609"/>
      <use xlink:href="#DejaVuSerif-45" x="687.011719"/>
      <use xlink:href="#DejaVuSerif-6e" x="760.009766"/>
      <use xlink:href="#DejaVuSerif-65" x="824.414062"/>
      <use xlink:href="#DejaVuSerif-72" x="883.59375"/>
      <use xlink:href="#DejaVuSerif-67" x="931.396484"/>
      <use xlink:href="#DejaVuSerif-69" x="995.410156"/>
      <use xlink:href="#DejaVuSerif-61" x="1027.392578"/>
      <use xlink:href="#DejaVuSerif-20" x="1087.011719"/>
      <use xlink:href="#DejaVuSerif-41" x="1118.798828"/>
      <use xlink:href="#DejaVuSerif-64" x="1191.015625"/>
      <use xlink:href="#DejaVuSerif-69" x="1255.029297"/>
      <use xlink:href="#DejaVuSerif-63" x="1287.011719"/>
      <use xlink:href="#DejaVuSerif-69" x="1343.017578"/>
      <use xlink:href="#DejaVuSerif-6f" x="1375"/>
      <use xlink:href="#DejaVuSerif-6e" x="1435.205078"/>
      <use xlink:href="#DejaVuSerif-61" x="1499.609375"/>
      <use xlink:href="#DejaVuSerif-6c" x="1559.228516"/>
     </g>
    </g>
    <g id="patch_11">
     <path d="M 563.144062 80.13 
L 587.144062 80.13 
L 587.144062 71.73 
L 563.144062 71.73 
z
" style="fill: #ff0000; fill-opacity: 0.2; stroke: #ff0000; stroke-opacity: 0.2; stroke-linejoin: miter"/>
    </g>
    <g id="text_24">
     <!-- Aumento no Consumo -->
     <g transform="translate(596.744062 80.13) scale(0.12 -0.12)">
      <use xlink:href="#DejaVuSerif-41"/>
      <use xlink:href="#DejaVuSerif-75" x="72.216797"/>
      <use xlink:href="#DejaVuSerif-6d" x="136.621094"/>
      <use xlink:href="#DejaVuSerif-65" x="231.445312"/>
      <use xlink:href="#DejaVuSerif-6e" x="290.625"/>
      <use xlink:href="#DejaVuSerif-74" x="355.029297"/>
      <use xlink:href="#DejaVuSerif-6f" x="395.214844"/>
      <use xlink:href="#DejaVuSerif-20" x="455.419922"/>
      <use xlink:href="#DejaVuSerif-6e" x="487.207031"/>
      <use xlink:href="#DejaVuSerif-6f" x="551.611328"/>
      <use xlink:href="#DejaVuSerif-20" x="611.816406"/>
      <use xlink:href="#DejaVuSerif-43" x="643.603516"/>
      <use xlink:href="#DejaVuSerif-6f" x="720.117188"/>
      <use xlink:href="#DejaVuSerif-6e" x="780.322266"/>
      <use xlink:href="#DejaVuSerif-73" x="844.726562"/>
      <use xlink:href="#DejaVuSerif-75" x="896.044922"/>
      <use xlink:href="#DejaVuSerif-6d" x="960.449219"/>
      <use xlink:href="#DejaVuSerif-6f" x="1055.273438"/>
     </g>
    </g>
   </g>
  </g>
 </g>
 <defs>
  <clipPath id="p3591da4f57">
   <rect x="51.035938" y="7.2" width="789.685" height="519.28"/>
  </clipPath>
 </defs>
 <defs>
  <pattern id="hc119be2cf2" patternUnits="userSpaceOnUse" x="0" y="0" width="72" height="72">
   <rect x="0" y="0" width="73" height="73" fill="#90ee90"/>
   <path d="M -36 36 
L 36 -36 
M -30 42 
L 42 -30 
M -24 48 
L 48 -24 
M -18 54 
L 54 -18 
M -12 60 
L 60 -12 
M -6 66 
L 66 -6 
M 0 72 
L 72 0 
M 6 78 
L 78 6 
M 12 84 
L 84 12 
M 18 90 
L 90 18 
M 24 96 
L 96 24 
M 30 102 
L 102 30 
M 36 108 
L 108 36 
" style="fill: #008000; stroke: #008000; stroke-width: 1.0; stroke-linecap: butt; stroke-linejoin: miter; stroke-opacity: 0.6"/>
  </pattern>
 </defs>
</svg>
